<svg width="448" height="286" viewBox="0 0 448 286" fill="none" xmlns="http://www.w3.org/2000/svg">
<g clip-path="url(#clip0_88_2937)">
<path d="M62.4668 0.671875L108.814 27.7667" stroke="#263238" stroke-width="2" stroke-linecap="round" stroke-linejoin="round"/>
<path d="M0.672852 79.6191L83.5341 95.0405" stroke="#263238" stroke-width="2" stroke-linecap="round" stroke-linejoin="round"/>
<path d="M107.879 194.54L81.1914 215.1" stroke="#263238" stroke-width="2" stroke-linecap="round" stroke-linejoin="round"/>
<path d="M447.663 146.06H404.224V173.873H447.663V146.06Z" fill="white" stroke="#263238" stroke-linecap="round" stroke-linejoin="round"/>
<path d="M404.224 146.06L425.58 164.121L447.354 146.308" fill="white"/>
<path d="M404.224 146.06L425.58 164.121L447.354 146.308" stroke="#263238" stroke-linecap="round" stroke-linejoin="round"/>
<path d="M404.224 173.873L419.792 159.781" stroke="#263238" stroke-linecap="round" stroke-linejoin="round"/>
<path d="M447.663 173.873L431.375 159.781" stroke="#263238" stroke-linecap="round" stroke-linejoin="round"/>
<path d="M407.773 153.003C412.685 152.203 416.019 147.581 415.218 142.679C414.417 137.777 409.785 134.451 404.872 135.25C399.96 136.049 396.627 140.671 397.428 145.574C398.229 150.476 402.86 153.802 407.773 153.003Z" fill="#263238"/>
<path d="M402.588 148.914V141.183C402.501 141.23 402.4 141.277 402.286 141.331C402.171 141.385 402.057 141.432 401.929 141.479C401.808 141.532 401.686 141.579 401.565 141.626C401.451 141.673 401.343 141.721 401.249 141.768V140.283C401.337 140.236 401.464 140.169 401.619 140.088C401.781 140.008 401.949 139.914 402.137 139.806C402.319 139.706 402.494 139.598 402.656 139.491C402.817 139.383 402.938 139.289 403.019 139.208H404.594V148.921H402.588V148.914Z" fill="#92E3A9"/>
<path d="M408.727 149.095C408.013 149.095 407.475 148.968 407.111 148.719C406.748 148.471 406.499 148.115 406.371 147.658C406.243 147.201 406.176 146.677 406.176 146.073H408.108C408.108 146.442 408.128 146.738 408.168 146.973C408.208 147.208 408.283 147.369 408.39 147.47C408.498 147.571 408.653 147.618 408.855 147.611C409.063 147.604 409.211 147.517 409.299 147.363C409.386 147.201 409.44 146.973 409.46 146.671C409.481 146.369 409.487 146.013 409.487 145.583C409.487 145.26 409.467 144.978 409.433 144.73C409.4 144.481 409.326 144.286 409.218 144.139C409.11 143.991 408.949 143.917 408.733 143.917C408.532 143.917 408.37 143.991 408.242 144.132C408.114 144.28 408.02 144.501 407.966 144.804H406.236L406.418 139.202H410.961V140.881H408.033L407.926 142.883C408.007 142.768 408.161 142.674 408.383 142.587C408.606 142.506 408.848 142.453 409.104 142.426C409.602 142.372 410.019 142.459 410.362 142.695C410.706 142.93 410.961 143.286 411.13 143.769C411.305 144.246 411.385 144.837 411.385 145.529C411.385 146.046 411.352 146.523 411.291 146.96C411.224 147.396 411.103 147.772 410.921 148.088C410.739 148.404 410.47 148.652 410.113 148.827C409.763 149.001 409.299 149.089 408.733 149.089L408.727 149.095Z" fill="#92E3A9"/>
<path d="M146.903 214.596H115.996C114.271 214.596 112.873 215.991 112.873 217.712V240.522C112.873 242.243 114.271 243.638 115.996 243.638H146.903C148.628 243.638 150.026 242.243 150.026 240.522V217.712C150.026 215.991 148.628 214.596 146.903 214.596Z" fill="#263238"/>
<path d="M140.058 226.988L127.687 219.862C126.482 219.17 124.975 220.036 124.975 221.427V235.686C124.975 237.076 126.482 237.943 127.687 237.251L140.058 230.125C141.263 229.433 141.263 227.693 140.058 227.001V226.988Z" fill="#92E3A9"/>
<path d="M70.7726 139.518V180.69H22.2646V139.518H28.7396V143.131H33.8549V139.518H60.017V143.131H65.139V139.518H70.7726Z" stroke="#263238" stroke-linecap="round" stroke-linejoin="round"/>
<path d="M33.66 148.914H27.2188V155.342H33.66V148.914Z" stroke="#263238" stroke-linecap="round" stroke-linejoin="round"/>
<path d="M44.5633 148.914H38.1221V155.342H44.5633V148.914Z" fill="#92E3A9" stroke="#263238" stroke-linecap="round" stroke-linejoin="round"/>
<path d="M55.4676 148.914H49.0264V155.342H55.4676V148.914Z" stroke="#263238" stroke-linecap="round" stroke-linejoin="round"/>
<path d="M66.3709 148.914H59.9297V155.342H66.3709V148.914Z" stroke="#263238" stroke-linecap="round" stroke-linejoin="round"/>
<path d="M33.66 159.056H27.2188V165.484H33.66V159.056Z" stroke="#263238" stroke-linecap="round" stroke-linejoin="round"/>
<path d="M44.5633 159.056H38.1221V165.484H44.5633V159.056Z" stroke="#263238" stroke-linecap="round" stroke-linejoin="round"/>
<path d="M55.4676 159.056H49.0264V165.484H55.4676V159.056Z" fill="#92E3A9" stroke="#263238" stroke-linecap="round" stroke-linejoin="round"/>
<path d="M66.3709 159.056H59.9297V165.484H66.3709V159.056Z" stroke="#263238" stroke-linecap="round" stroke-linejoin="round"/>
<path d="M33.66 169.198H27.2188V175.626H33.66V169.198Z" fill="#92E3A9" stroke="#263238" stroke-linecap="round" stroke-linejoin="round"/>
<path d="M44.5633 169.198H38.1221V175.626H44.5633V169.198Z" stroke="#263238" stroke-linecap="round" stroke-linejoin="round"/>
<path d="M55.4676 169.198H49.0264V175.626H55.4676V169.198Z" stroke="#263238" stroke-linecap="round" stroke-linejoin="round"/>
<path d="M66.3709 169.198H59.9297V175.626H66.3709V169.198Z" stroke="#263238" stroke-linecap="round" stroke-linejoin="round"/>
<path d="M33.8546 136.603H28.7393V143.131H33.8546V136.603Z" stroke="#263238" stroke-linecap="round" stroke-linejoin="round"/>
<path d="M65.1386 136.603H60.0166V143.131H65.1386V136.603Z" stroke="#263238" stroke-linecap="round" stroke-linejoin="round"/>
<path d="M361.74 69.3086H325.69C322.446 69.3086 319.821 71.9281 319.821 75.1655V93.0518C319.821 96.2892 322.446 98.9087 325.69 98.9087H347.592L354.841 107.13L353.986 98.9087H361.74C364.984 98.9087 367.609 96.2892 367.609 93.0518V75.1655C367.609 71.9281 364.984 69.3086 361.74 69.3086Z" fill="#92E3A9" stroke="#263238" stroke-linecap="round" stroke-linejoin="round"/>
<path d="M336.635 84.891C336.635 86.2343 335.545 87.3157 334.205 87.3157C332.866 87.3157 331.775 86.2276 331.775 84.891C331.775 83.5544 332.866 82.4663 334.205 82.4663C335.545 82.4663 336.635 83.5544 336.635 84.891Z" fill="#263238" stroke="#263238" stroke-linecap="round" stroke-linejoin="round"/>
<path d="M346.973 84.891C346.973 86.2343 345.882 87.3157 344.543 87.3157C343.204 87.3157 342.113 86.2276 342.113 84.891C342.113 83.5544 343.204 82.4663 344.543 82.4663C345.882 82.4663 346.973 83.5544 346.973 84.891Z" fill="#263238" stroke="#263238" stroke-linecap="round" stroke-linejoin="round"/>
<path d="M357.311 84.891C357.311 86.2343 356.22 87.3157 354.881 87.3157C353.542 87.3157 352.451 86.2276 352.451 84.891C352.451 83.5544 353.542 82.4663 354.881 82.4663C356.22 82.4663 357.311 83.5544 357.311 84.891Z" fill="#263238" stroke="#263238" stroke-linecap="round" stroke-linejoin="round"/>
<path d="M192.989 115.022C177.589 162.34 155.734 177.251 155.734 177.251C142.919 188.596 129.243 193.553 117.383 189.576C92.2441 181.174 84.773 135.884 100.691 88.4376C116.623 40.9847 149.919 9.32261 175.058 17.7251C187.167 21.7752 195.169 34.3621 198.427 51.644C204.384 79.9881 192.982 115.015 192.982 115.015L192.989 115.022Z" fill="#92E3A9" stroke="#263238" stroke-linecap="round" stroke-linejoin="round"/>
<path d="M184.111 116.331C198.946 72.1384 193.002 30.3063 170.835 22.8962C148.668 15.4861 118.672 45.304 103.837 89.4964C89.0025 133.689 94.9465 175.521 117.114 182.931C139.281 190.341 169.277 160.523 184.111 116.331Z" fill="#CFCFCF" stroke="#263238" stroke-linecap="round" stroke-linejoin="round"/>
<path d="M184.103 116.325C172.17 151.836 150.47 178.077 130.897 183.155C143.544 166.364 155.74 142.748 164.894 115.452C176.255 81.6135 180.476 49.461 177.851 26.7925C194.098 39.9973 197.221 77.2409 184.11 116.332L184.103 116.325Z" fill="#263238" stroke="#263238" stroke-linecap="round" stroke-linejoin="round"/>
<path d="M154.94 106.572C150.888 118.656 142.683 126.803 136.626 124.781C130.568 122.753 128.939 111.321 132.998 99.2378C137.05 87.1546 145.254 79.0074 151.312 81.0291C157.369 83.0575 158.998 94.4892 154.94 106.572Z" fill="#92E3A9" stroke="#263238" stroke-linecap="round" stroke-linejoin="round"/>
<path d="M151.305 81.0293C157.363 83.0577 158.992 94.4894 154.933 106.573C150.881 118.656 142.677 126.803 136.619 124.781L173.375 141.25C177.441 133.654 181.089 125.292 184.097 116.318C187.409 106.445 189.684 96.6857 190.969 87.4034L151.299 81.0293H151.305Z" fill="#92E3A9" stroke="#263238" stroke-linecap="round" stroke-linejoin="round"/>
<path d="M196.946 99.782C197.471 97.2767 197.922 94.7982 198.319 92.3467C197.936 94.7915 197.471 97.2767 196.946 99.782Z" stroke="#263238" stroke-linecap="round" stroke-linejoin="round"/>
<path d="M339.832 127.656C344.711 134.628 345.654 143.991 344.287 152.32C341.561 168.943 329.453 191.968 310.271 193.183C308.5 193.298 306.724 193.183 304.987 192.854C282.399 190.651 256.244 180.758 218.235 176.56C193.648 172.725 157.707 176.204 155.741 177.258C188.843 145.784 204.343 95.5575 198.441 51.6577C223.815 83.9042 267.013 98.6471 309.968 112.49C316.005 114.438 328.006 117.104 335.282 122.84C337.072 124.251 338.58 125.876 339.825 127.663L339.832 127.656Z" fill="white" stroke="#263238" stroke-linecap="round" stroke-linejoin="round"/>
<path d="M304.98 192.854C306.723 193.183 308.5 193.298 310.264 193.183C329.446 191.968 341.555 168.95 344.281 152.319C345.647 143.984 344.711 134.628 339.825 127.656C338.58 125.876 337.072 124.244 335.282 122.834C328.006 117.091 316.005 114.424 309.968 112.483C303.6 110.428 297.226 108.359 290.906 106.21C294.857 117.292 294.002 135.642 290.025 147.759C282.729 169.971 271.717 178.373 261.251 184.049C278.017 187.83 292.084 191.598 304.987 192.854H304.98Z" fill="#92E3A9" stroke="#263238" stroke-linecap="round" stroke-linejoin="round"/>
<path d="M170.986 160.628C169.633 162.535 168.327 164.255 167.089 165.793L283.348 181.691L170.993 160.628H170.986Z" fill="#263238" stroke="#263238" stroke-linecap="round" stroke-linejoin="round"/>
<path d="M181.916 142.198C179.008 147.732 175.764 153.072 172.177 158.149C218.989 164.349 298.855 181.503 325.151 187.273C327.487 185.466 329.627 183.33 331.566 180.959L181.916 142.198Z" fill="#263238" stroke="#263238" stroke-linecap="round" stroke-linejoin="round"/>
<path d="M176.223 166.082C174.25 163.355 175.307 157.068 177.629 149.807C171.525 159.902 164.215 169.198 155.734 177.258C157.7 176.204 193.642 172.724 218.229 176.56C230.579 177.923 241.672 179.891 251.801 182L248.288 181.127C248.288 181.127 203.946 172.651 189.845 171.717C175.745 170.777 176.216 166.088 176.216 166.088L176.223 166.082Z" fill="#263238" stroke="#263238" stroke-linecap="round" stroke-linejoin="round"/>
<path d="M260.531 209.975L258.168 213.38L262.631 217.833C262.631 217.833 257.381 228.049 253.968 240.099C250.556 252.148 247.668 258.435 247.668 258.435C247.668 258.435 238.481 264.46 239.006 267.603C239.531 270.747 252.918 279.391 255.806 281.748C258.693 284.106 263.681 286.725 267.881 284.63C272.081 282.534 271.818 279.915 271.818 277.033C271.818 274.152 272.081 270.747 272.081 270.747C272.081 270.747 286.518 244.545 288.88 236.425C291.243 228.304 292.293 214.421 295.968 212.849C299.643 211.278 309.88 211.54 311.455 207.348C313.03 203.157 320.4 186.312 320.4 186.312L281.261 179.058C281.261 179.058 272.074 186.393 257.899 183.249L269.974 193.989L260.524 209.968L260.531 209.975Z" fill="white" stroke="#263238" stroke-linecap="round" stroke-linejoin="round"/>
<path d="M257.906 183.256L269.981 193.996L260.531 209.975L258.169 213.38L259.824 215.032L265.256 214.69C265.256 214.69 279.229 197.133 280.804 193.317C282.379 189.509 281.268 179.058 281.268 179.058C281.268 179.058 272.081 186.393 257.906 183.249V183.256Z" fill="#EDEDED" stroke="#263238" stroke-linecap="round" stroke-linejoin="round"/>
<path d="M269.193 188.495C269.193 188.495 269.718 192.424 266.306 195.567C262.893 198.711 257.118 206.569 257.906 207.093C258.693 207.617 260.531 209.975 260.531 209.975L263.943 211.022C263.943 211.022 272.606 198.449 272.868 195.306C273.131 192.162 269.193 188.495 269.193 188.495Z" fill="#EDEDED" stroke="#263238" stroke-linecap="round" stroke-linejoin="round"/>
<path d="M258.168 213.38L265.255 214.69L271.555 219.935L262.63 217.84L258.168 213.38Z" fill="#263238" stroke="#263238" stroke-linecap="round" stroke-linejoin="round"/>
<path d="M253.181 262.633C256.068 260.275 256.593 255.036 260.531 245.868C264.468 236.7 271.556 219.929 271.556 219.929L262.631 217.833C262.631 217.833 257.381 228.049 253.968 240.099C250.556 252.148 247.668 258.435 247.668 258.435C247.668 258.435 238.481 264.46 239.006 267.603C239.531 270.746 252.918 279.391 255.806 281.748C257.387 283.038 259.602 284.401 261.964 285.033C258.498 282.386 246.78 272.379 246.087 269.168C245.299 265.501 250.287 264.977 253.174 262.619L253.181 262.633Z" fill="#EDEDED" stroke="#263238" stroke-linecap="round" stroke-linejoin="round"/>
<path d="M269.193 188.495L267.355 186.661H264.73L268.93 191.638C268.93 191.638 268.93 190.329 269.193 188.495Z" fill="#263238" stroke="#263238" stroke-linecap="round" stroke-linejoin="round"/>
<path d="M246.262 269.672L239.013 267.308C239.013 267.408 238.993 267.516 239.013 267.617C239.538 270.76 252.925 279.404 255.813 281.762C257.394 283.051 259.609 284.415 261.971 285.046C258.666 282.521 247.844 273.292 246.269 269.672H246.262Z" fill="#263238" stroke="#263238" stroke-linecap="round" stroke-linejoin="round"/>
<path d="M257.906 207.093L263.048 208.249L263.944 211.022L260.531 209.975L257.906 207.093Z" fill="#263238" stroke="#263238" stroke-linecap="round" stroke-linejoin="round"/>
<path d="M263.048 208.248C263.048 208.248 270.788 199.013 270.956 195.312L263.048 208.248Z" fill="#263238"/>
<path d="M263.048 208.248C263.048 208.248 270.788 199.013 270.956 195.312" stroke="#263238" stroke-linecap="round" stroke-linejoin="round"/>
<path d="M352.989 194.761C352.989 194.761 351.28 205.877 351.233 209.189C351.185 212.5 348.702 235.827 350.398 238.487C352.101 241.146 351.636 243.632 352.659 245.264C353.682 246.889 354.362 247.923 354.362 247.923C354.362 247.923 356.96 262.666 357.795 266.307C358.63 269.947 358.32 269.806 358.111 271.512C357.909 273.211 359.976 274.32 359.976 274.32C359.976 274.32 357.977 276.899 357.297 278.323C356.617 279.747 352.202 280.633 350.095 281.372C347.988 282.118 347.934 283.81 348.426 284.24C348.917 284.67 350.613 284.724 350.613 284.724L371.774 283.434C372.899 283.367 373.76 282.427 373.733 281.305C373.706 280.331 373.673 279.196 373.625 278.403C373.524 276.718 373.087 274.595 372.905 274.145C372.724 273.695 372.353 272.641 372.219 270.498C372.091 268.355 369.143 265.461 368.914 264.245C368.685 263.029 368.934 257.024 367.521 251.577C366.107 246.13 361.901 232.717 361.874 232.254C361.847 231.797 366.114 219.27 366.114 219.27C366.114 219.27 374.945 206.945 375.692 206.502C376.439 206.059 381.231 197.777 381.123 196.326C381.016 194.876 379.979 192.082 371.788 190.013C363.597 187.944 359.296 191.134 358.327 191.833C357.357 192.538 352.989 194.755 352.989 194.755V194.761Z" fill="#263238" stroke="#263238" stroke-linecap="round" stroke-linejoin="round"/>
<path d="M359.989 274.313C359.989 274.313 357.99 276.892 357.31 278.316C356.631 279.74 352.215 280.627 350.109 281.365C348.002 282.111 347.948 283.804 348.439 284.233C348.931 284.663 350.627 284.717 350.627 284.717L358.441 285.664L371.983 283.582C373.02 283.421 373.78 282.521 373.754 281.473C373.727 280.459 373.693 279.236 373.639 278.397C373.612 278 373.572 277.584 373.518 277.174C372.966 277.121 372.36 277.053 371.707 276.979C366.437 276.382 359.996 274.313 359.996 274.313H359.989Z" fill="#92E3A9" stroke="#263238" stroke-linecap="round" stroke-linejoin="round"/>
<path d="M385.869 267.798L385.593 273.822C385.593 273.822 381.258 281.103 380.706 281.916C380.154 282.729 381.433 283.239 382.692 283.602C383.957 283.958 392.256 279.894 393.818 278.229C395.379 276.563 398.32 272.936 398.32 272.936C398.32 272.936 403.072 268.852 402.527 267.825C401.982 266.79 396.126 263.116 396.126 263.116L385.869 267.798Z" fill="#92E3A9" stroke="#263238" stroke-linecap="round" stroke-linejoin="round"/>
<path d="M359.727 197.159C359.727 197.159 358.327 212.043 358.3 213.588C358.273 215.126 357.506 232.119 359.323 235.504C361.14 238.896 370.476 253.055 370.476 253.055C370.476 253.055 380.518 262.7 381.171 263.103C381.823 263.513 381.447 264.621 381.803 265.205C382.16 265.789 384.045 266.253 384.045 266.253C384.045 266.253 384.664 268.201 385.034 268.94C385.404 269.678 387.316 268.597 390.331 267.737C393.346 266.878 396.119 263.11 396.119 263.11C396.119 263.11 395.291 260.564 394.948 260.127C394.605 259.691 395.843 259.744 394.262 257.414C392.68 255.083 391.522 254.096 391.522 254.096L376.856 236.982L374.824 232.838C374.824 232.838 375.039 226.047 374.797 224.993C374.554 223.938 373.612 221.856 373.578 221.399C373.538 220.943 379.077 205.716 379.286 204.467C379.495 203.218 381.884 198.563 381.911 197.018C381.938 195.48 379.609 193.358 379.609 193.358C379.609 193.358 372.427 190.402 369.823 190.617C367.218 190.832 366.444 190.738 364.828 191.793C363.22 192.847 360.615 194.909 360.615 194.909L359.72 197.139L359.727 197.159Z" fill="#5E5E5E" stroke="#263238" stroke-linecap="round" stroke-linejoin="round"/>
<path d="M373.626 231.293C373.626 231.293 369.708 230.393 368.302 230.333C366.895 230.272 366.949 231.233 370.886 232.039" stroke="#263238" stroke-linecap="round" stroke-linejoin="round"/>
<path d="M371.539 197.273C371.539 197.273 371.741 206.153 370.307 209.934C368.867 213.715 367.877 218.679 367.305 222.393C366.733 226.101 368.416 225.268 368.328 226.323C368.241 227.377 366.457 229.09 366.457 229.09" stroke="#263238" stroke-linecap="round" stroke-linejoin="round"/>
<path d="M370.557 234.335C370.557 234.335 372.199 239.433 376.5 245.015C380.801 250.596 387.78 256.829 388.07 258.2C388.359 259.57 387.632 261.377 387.632 261.377C387.632 261.377 390.412 261.148 390.668 262.176C390.924 263.203 391.55 264.372 391.55 264.372" stroke="#263238" stroke-linecap="round" stroke-linejoin="round"/>
<path d="M383.164 123.263C383.164 123.263 381.528 127.588 381.313 128.542C381.097 129.496 381.084 131.37 381.259 132.082C381.434 132.794 381.75 135.01 381.75 135.01L369.406 141.055L369.635 136.266C368.329 133.701 367.804 132.579 366.721 132.169C365.637 131.76 363.396 132.102 362.608 130.873C362.231 130.289 362.379 126.635 362.541 125.164C362.702 123.693 363.113 122.611 363.113 122.611C363.113 122.611 361.773 121.711 361.881 120.764C361.989 119.817 362.998 119.508 363.806 119.22C364.607 118.931 365.112 118.776 365.482 118.32C365.852 117.863 365.59 117.373 366.579 115.821C367.562 114.263 369.877 113.51 369.877 113.51C369.877 113.51 371.701 113.013 374.764 113.423C377.826 113.833 382.282 119.717 382.8 120.704C383.318 121.691 383.17 123.263 383.17 123.263H383.164Z" fill="#C9C9C9" stroke="#263238" stroke-linecap="round" stroke-linejoin="round"/>
<path d="M363.826 125.036L366.693 124.029C366.693 124.029 366.633 125.224 366.067 126.071C365.502 126.917 364.351 126.561 363.826 125.036Z" fill="#263238" stroke="#263238" stroke-linecap="round" stroke-linejoin="round"/>
<path d="M366.606 118.427C366.445 118.823 366.512 119.226 366.761 119.327C367.01 119.428 367.34 119.186 367.501 118.79C367.663 118.393 367.596 117.99 367.347 117.89C367.098 117.789 366.768 118.031 366.606 118.427Z" fill="#263238"/>
<path d="M368.74 117.265C368.74 117.265 367.73 115.976 366.889 116.815" stroke="#263238" stroke-linecap="round" stroke-linejoin="round"/>
<path d="M382.8 120.704C383.318 121.691 383.17 123.263 383.17 123.263C383.17 123.263 382.363 125.399 381.811 126.997C381.555 126.843 381.131 129.543 380.862 129.261C379.805 128.159 377.503 123.619 377.342 123.364C377.18 123.109 376.022 120.341 376.022 120.341C376.022 120.341 374.003 120.858 373.492 120.435C372.98 120.019 373.438 118.629 373.445 118.024C373.445 117.42 372.125 115.834 371.641 115.082C371.156 114.323 372.004 113.363 372.004 113.363L372.125 113.262C372.852 113.249 373.741 113.282 374.771 113.423C377.833 113.833 382.289 119.717 382.807 120.704H382.8Z" fill="#A6A6A6" stroke="#263238" stroke-linecap="round" stroke-linejoin="round"/>
<path d="M374.528 120.63C374.528 120.63 377.375 118.555 377.792 121.631C378.216 124.707 376.056 125.795 374.736 126.138C373.417 126.48 373.175 125.157 373.175 125.157" fill="#C9C9C9"/>
<path d="M374.528 120.63C374.528 120.63 377.375 118.555 377.792 121.631C378.216 124.707 376.056 125.795 374.736 126.138C373.417 126.48 373.175 125.157 373.175 125.157" stroke="#263238" stroke-linecap="round" stroke-linejoin="round"/>
<path d="M380.969 112.06C380.969 112.06 381.912 111.133 383.722 113.544C385.533 115.955 384.988 116.741 384.988 116.741C384.988 116.741 386.139 116.829 386.643 118.649C387.148 120.469 386.394 122.309 384.799 122.994C383.204 123.68 383.15 123.162 381.663 121.859C380.175 120.556 380.693 117.494 377.914 115.801C375.134 114.115 372.819 113.833 371.136 113.692C369.453 113.551 368.349 112.94 368.74 111.65C369.13 110.36 371.647 108.547 373.182 109.326C374.717 110.105 375.255 110.253 375.255 110.253C375.255 110.253 379.953 109.353 380.956 112.06H380.969Z" fill="#263238" stroke="#263238" stroke-linecap="round" stroke-linejoin="round"/>
<path d="M369.035 142.09L350.539 147.45L345.202 145.824C345.168 146.046 345.128 146.268 345.108 146.489C344.65 150.694 344.327 153.004 343.748 155.765L350.122 159.909L370.381 161.675L369.042 142.09H369.035Z" fill="#263238" stroke="#263238" stroke-linecap="round" stroke-linejoin="round"/>
<path d="M368.093 137.046C368.093 137.046 365.468 143.023 365.091 143.883C364.714 144.736 360.299 152.165 359.794 158.525C359.289 164.886 356.2 178.971 356.2 178.971L351.192 196.212C351.192 196.212 353.198 198.301 358.946 196.273C364.694 194.244 366.417 191.195 369.392 191.947C372.374 192.699 376.129 196.017 378.061 197.139C379.993 198.261 383.533 200.578 383.533 200.578C383.533 200.578 385.519 182.732 385.539 177.043C385.552 171.354 388.393 155.778 387.148 148.82C385.902 141.861 383.675 138.134 382.557 136.905C381.44 135.675 380.511 135.595 380.511 135.595C380.511 135.595 371.344 134.231 368.093 137.046Z" fill="white" stroke="#263238" stroke-linecap="round" stroke-linejoin="round"/>
<path d="M370.112 164.234C370.112 164.234 375.685 174.665 381.608 177.446L370.112 164.234Z" fill="white"/>
<path d="M370.112 164.234C370.112 164.234 375.685 174.665 381.608 177.446" stroke="#263238" stroke-linecap="round" stroke-linejoin="round"/>
<path d="M366.283 163.885L371.856 171.186" stroke="#263238" stroke-linecap="round" stroke-linejoin="round"/>
<path d="M383.809 137.408C383.809 137.408 383.856 133.103 382.207 132.277C380.558 131.45 373.733 133.821 371.459 134.668C369.184 135.514 366.121 136.703 366.121 136.703L366.363 142.358C366.363 142.358 371.93 139.396 373.733 137.838C374.979 136.757 381.952 136.313 383.816 137.415L383.809 137.408Z" fill="white" stroke="#263238" stroke-linecap="round" stroke-linejoin="round"/>
<path d="M321.854 140.767C321.854 140.767 320.339 139.927 318.771 138.12C317.203 136.313 316.806 138.463 317.122 139.087C317.439 139.719 318.677 141.015 318.677 141.015L321.847 140.76L321.854 140.767Z" fill="#C9C9C9" stroke="#263238" stroke-linecap="round" stroke-linejoin="round"/>
<path d="M336.176 146.718C336.176 146.718 326.686 143.138 325.993 142.808C325.3 142.479 321.652 140.706 320.507 140.464C319.363 140.223 314.329 140.135 313.393 140.162C312.458 140.189 311.616 140.673 312.249 141.485C312.882 142.298 315.567 141.606 315.567 141.606L319.303 142.271C319.303 142.271 312.31 143.353 311.313 143.863C310.317 144.373 311.286 145.273 313.541 144.823C315.803 144.373 316.826 144.011 316.826 144.011L318.663 144.582C318.663 144.582 314.443 146.207 313.151 146.778C311.852 147.349 311.912 148.43 313.151 148.343C314.389 148.256 315.318 147.443 315.776 147.349C316.227 147.262 319.208 147.288 319.208 147.288C319.208 147.288 315.022 148.283 314.746 149.27C314.477 150.264 315.439 150.385 316.402 149.72C317.364 149.055 317.667 149.001 318.273 148.88C318.879 148.759 321.86 148.793 321.86 148.793C321.86 148.793 325.535 148.37 325.986 148.283C326.437 148.195 336.742 154.267 336.742 154.267L336.17 146.718H336.176Z" fill="#C9C9C9" stroke="#263238" stroke-linecap="round" stroke-linejoin="round"/>
<path d="M376.506 139.92C376.506 139.92 370.839 140.646 369.035 142.09C367.231 143.534 366.35 145.099 365.973 145.314C365.596 145.529 356.886 148.733 356.886 148.733L339.642 147.994L338.256 155.275C338.256 155.275 354.053 161.581 354.665 161.501C355.278 161.427 368.907 161.796 370.375 161.662C371.842 161.528 379.878 158.431 379.878 158.431" fill="white"/>
<path d="M376.506 139.92C376.506 139.92 370.839 140.646 369.035 142.09C367.231 143.534 366.35 145.099 365.973 145.314C365.596 145.529 356.886 148.733 356.886 148.733L339.642 147.994L338.256 155.275C338.256 155.275 354.053 161.581 354.665 161.501C355.278 161.427 368.907 161.796 370.375 161.662C371.842 161.528 379.878 158.431 379.878 158.431" stroke="#263238" stroke-linecap="round" stroke-linejoin="round"/>
<path d="M356.92 152.642C356.92 152.642 362.358 155.839 368.248 156.631L356.92 152.642Z" fill="white"/>
<path d="M356.92 152.642C356.92 152.642 362.358 155.839 368.248 156.631" stroke="#263238" stroke-linecap="round" stroke-linejoin="round"/>
<path d="M375.807 155.819C376.661 155.913 377.516 155.987 378.358 156.034L375.807 155.819Z" fill="white"/>
<path d="M375.807 155.819C376.661 155.913 377.516 155.987 378.358 156.034" stroke="#263238" stroke-linecap="round" stroke-linejoin="round"/>
<path d="M364.229 153.548C364.229 153.548 368.349 154.717 373.188 155.469L364.229 153.548Z" fill="white"/>
<path d="M364.229 153.548C364.229 153.548 368.349 154.717 373.188 155.469" stroke="#263238" stroke-linecap="round" stroke-linejoin="round"/>
<path d="M340.49 147.107C340.49 147.107 336.331 144.34 335.671 144.944C335.005 145.549 335.187 153.488 335.759 154.777C336.331 156.074 337.596 156.913 338.384 156.913C339.164 156.913 341.641 149.693 340.497 147.107H340.49Z" fill="white" stroke="#263238" stroke-linecap="round" stroke-linejoin="round"/>
<path d="M371.97 283.582C373.007 283.421 373.767 282.521 373.741 281.473C373.741 281.198 373.727 280.902 373.72 280.606C370.84 281.52 362.837 283.924 359.047 283.777C355.797 283.649 351.024 283.024 348.426 282.655C348.063 283.32 348.15 283.985 348.426 284.233C348.918 284.663 350.614 284.717 350.614 284.717L358.428 285.664L371.97 283.582Z" fill="white" stroke="#263238" stroke-linecap="round" stroke-linejoin="round"/>
<path d="M392.425 277.053C390.843 278.551 382.41 282.218 380.936 282.856C381.333 283.165 382.012 283.407 382.699 283.602C383.964 283.958 392.263 279.894 393.825 278.229C395.386 276.563 398.328 272.936 398.328 272.936C398.328 272.936 403.079 268.852 402.534 267.825C402.346 267.469 401.511 266.79 400.508 266.058C398.88 268.436 393.872 275.683 392.432 277.053H392.425Z" fill="white" stroke="#263238" stroke-linecap="round" stroke-linejoin="round"/>
</g>
<defs>
<clipPath id="clip0_88_2937">
<rect width="448" height="286" fill="white"/>
</clipPath>
</defs>
</svg>
