<svg width="1127" height="737" viewBox="0 0 1127 737" fill="none" xmlns="http://www.w3.org/2000/svg">
<mask id="path-1-inside-1_1_11272" fill="white">
<path d="M-9.53809 782.722H1138.19V734.995H-9.53809V782.722ZM1101.65 738.222H1121.79V758.859H1101.65V738.222ZM1069.48 738.222H1089.61V758.859H1069.48V738.222ZM1037.23 738.222H1057.37V758.859H1037.23V738.222ZM1005.05 738.222H1025.19V758.859H1005.05V738.222ZM972.875 738.222H993.012V758.859H972.875V738.222ZM940.629 738.222H960.766V758.859H940.629V738.222ZM908.451 738.222H928.588V758.859H908.659L908.451 738.222ZM876.274 738.222H896.411V758.859H876.274V738.222ZM844.027 738.222H864.164V758.859H844.027V738.222ZM811.85 738.222H831.987V758.859H811.781L811.85 738.222ZM779.673 738.222H799.809V758.859H779.673V738.222ZM747.426 738.222H767.563V758.859H747.426V738.222ZM715.249 738.222H735.662V758.859H715.525L715.249 738.222ZM683.071 738.222H703.208V758.859H683.071V738.222ZM650.894 738.222H670.961V758.859H650.894V738.222ZM618.647 738.222H638.784V758.859H618.647V738.222ZM586.47 738.222H606.607V758.859H586.47V738.222ZM554.293 738.222H574.36V758.859H554.293V738.222ZM522.046 738.222H541.906V758.859H521.769L522.046 738.222ZM489.869 738.222H510.005V758.859H489.869V738.222ZM457.691 738.222H477.759V758.859H457.691V738.222ZM425.445 738.222H445.582V758.859H425.445V738.222ZM393.267 738.222H413.404V758.859H393.267V738.222ZM361.09 738.222H381.158V758.859H361.09V738.222ZM328.843 738.222H348.98V758.859H328.843V738.222ZM296.666 738.222H316.803V758.859H296.666V738.222ZM264.489 738.222H284.556V758.859H264.489V738.222ZM232.242 738.222H252.379V758.859H232.242V738.222ZM200.065 738.222H220.201V758.859H200.065V738.222ZM167.887 738.222H187.955V758.859H168.233L167.887 738.222ZM135.641 738.222H155.777V758.859H135.641V738.222ZM103.463 738.222H123.6V758.859H103.463V738.222ZM71.2859 738.222H91.3536V758.859H71.3552L71.2859 738.222ZM39.0394 738.222H59.1762V758.859H39.0394V738.222ZM6.86201 738.222H26.9988V758.859H6.86201V738.222Z"/>
</mask>
<path d="M-9.53809 782.722H1138.19V734.995H-9.53809V782.722ZM1101.65 738.222H1121.79V758.859H1101.65V738.222ZM1069.48 738.222H1089.61V758.859H1069.48V738.222ZM1037.23 738.222H1057.37V758.859H1037.23V738.222ZM1005.05 738.222H1025.19V758.859H1005.05V738.222ZM972.875 738.222H993.012V758.859H972.875V738.222ZM940.629 738.222H960.766V758.859H940.629V738.222ZM908.451 738.222H928.588V758.859H908.659L908.451 738.222ZM876.274 738.222H896.411V758.859H876.274V738.222ZM844.027 738.222H864.164V758.859H844.027V738.222ZM811.85 738.222H831.987V758.859H811.781L811.85 738.222ZM779.673 738.222H799.809V758.859H779.673V738.222ZM747.426 738.222H767.563V758.859H747.426V738.222ZM715.249 738.222H735.662V758.859H715.525L715.249 738.222ZM683.071 738.222H703.208V758.859H683.071V738.222ZM650.894 738.222H670.961V758.859H650.894V738.222ZM618.647 738.222H638.784V758.859H618.647V738.222ZM586.47 738.222H606.607V758.859H586.47V738.222ZM554.293 738.222H574.36V758.859H554.293V738.222ZM522.046 738.222H541.906V758.859H521.769L522.046 738.222ZM489.869 738.222H510.005V758.859H489.869V738.222ZM457.691 738.222H477.759V758.859H457.691V738.222ZM425.445 738.222H445.582V758.859H425.445V738.222ZM393.267 738.222H413.404V758.859H393.267V738.222ZM361.09 738.222H381.158V758.859H361.09V738.222ZM328.843 738.222H348.98V758.859H328.843V738.222ZM296.666 738.222H316.803V758.859H296.666V738.222ZM264.489 738.222H284.556V758.859H264.489V738.222ZM232.242 738.222H252.379V758.859H232.242V738.222ZM200.065 738.222H220.201V758.859H200.065V738.222ZM167.887 738.222H187.955V758.859H168.233L167.887 738.222ZM135.641 738.222H155.777V758.859H135.641V738.222ZM103.463 738.222H123.6V758.859H103.463V738.222ZM71.2859 738.222H91.3536V758.859H71.3552L71.2859 738.222ZM39.0394 738.222H59.1762V758.859H39.0394V738.222ZM6.86201 738.222H26.9988V758.859H6.86201V738.222Z" stroke="#488D41" stroke-width="2" mask="url(#path-1-inside-1_1_11272)"/>
<path d="M711.306 507.234H711.806V506.734V477.817L722.401 440.11L732.997 477.817V506.734V507.234H733.497H737.512V715.215H722.401H707.259V507.234H711.306Z" stroke="#488D41"/>
<path d="M772.38 448.784H772.88V448.284V408.262L787.736 355.473L802.56 408.262V448.284V448.784H803.06H808.856V736.691H787.736H766.617V448.784H772.38Z" stroke="#488D41"/>
<path d="M393.502 507.234H394.002V506.734V477.817L404.598 440.11L415.194 477.817V506.734V507.234H415.694H419.74V715.215H404.598H389.456V507.234H393.502Z" stroke="#488D41"/>
<path d="M323.939 448.784H324.439V448.284V408.262L339.263 355.475L354.088 408.262V448.284V448.784H354.588H360.383V736.691H339.263H318.144V448.784H323.939Z" stroke="#488D41"/>
<path d="M563.827 13.9341L563.847 14.2703L564.166 14.3781C567.479 15.4981 570.312 17.7131 572.199 20.6588C573.813 23.35 574.636 26.4424 574.573 29.5806L574.572 29.5806V29.5907V39.877H552.554V29.4635H552.554L552.554 29.4534C552.491 26.316 553.313 23.2244 554.926 20.5337C556.818 17.6461 559.625 15.4784 562.896 14.3784L563.217 14.2703L563.236 13.9319L563.52 8.76116L563.827 13.9341Z" stroke="#488D41"/>
<path d="M591.47 269.408C591.44 269.524 591.429 269.687 591.421 269.85C591.413 270.028 591.409 270.259 591.409 270.537C591.408 271.093 591.421 271.856 591.447 272.812C591.5 274.725 591.607 277.422 591.76 280.8C592.067 287.557 592.562 297.048 593.199 308.458C594.472 331.281 596.308 361.789 598.323 393.485C602.352 456.868 607.098 525.022 609.484 545.926C611.875 566.87 619.489 592.789 626.493 613.448C629.997 623.783 633.351 632.811 635.83 639.255C637.069 642.477 638.09 645.054 638.801 646.826C639.156 647.711 639.434 648.396 639.623 648.859C639.625 648.864 639.627 648.868 639.629 648.873H487.37C487.372 648.868 487.374 648.864 487.376 648.859C487.565 648.396 487.842 647.711 488.197 646.825C488.907 645.054 489.926 642.477 491.164 639.255C493.64 632.811 496.991 623.783 500.49 613.448C507.487 592.788 515.092 566.87 517.483 545.926C519.869 525.022 524.623 456.876 528.661 393.497C530.68 361.803 532.52 331.296 533.795 308.472C534.433 297.06 534.93 287.569 535.238 280.81C535.392 277.43 535.498 274.732 535.551 272.818C535.578 271.861 535.591 271.097 535.59 270.539C535.59 270.261 535.586 270.03 535.578 269.851C535.571 269.688 535.559 269.524 535.53 269.409C535.273 268.382 534.498 266.783 533.521 265.008C532.533 263.216 531.31 261.19 530.119 259.29C528.928 257.388 527.768 255.607 526.905 254.301C526.473 253.648 526.116 253.114 525.867 252.743C525.742 252.557 525.644 252.412 525.578 252.314L525.562 252.29V237.735H601.437V252.29L601.422 252.314C601.355 252.412 601.257 252.557 601.133 252.743C600.883 253.114 600.526 253.648 600.095 254.301C599.232 255.607 598.071 257.388 596.88 259.29C595.689 261.19 594.466 263.216 593.479 265.008C592.502 266.782 591.726 268.381 591.47 269.408ZM591.47 269.408L591.954 269.53L591.469 269.409C591.469 269.409 591.469 269.408 591.47 269.408Z" stroke="#488D41"/>
<path d="M576.97 269.419L576.964 269.443L576.961 269.468C576.941 269.624 576.935 270.003 576.934 270.537C576.933 271.089 576.939 271.85 576.952 272.805C576.977 274.716 577.028 277.411 577.102 280.789C577.251 287.544 577.492 297.034 577.801 308.444C578.421 331.265 579.316 361.774 580.3 393.469C582.267 456.855 584.588 525.001 585.765 545.897C586.942 566.814 590.666 592.712 594.092 613.37C595.806 623.701 597.446 632.726 598.658 639.168C599.263 642.389 599.762 644.965 600.109 646.736C600.283 647.621 600.419 648.305 600.511 648.768C600.519 648.804 600.526 648.839 600.532 648.873H526.434C526.441 648.839 526.448 648.804 526.456 648.767C526.547 648.304 526.682 647.62 526.854 646.735C527.198 644.964 527.692 642.389 528.293 639.167C529.495 632.725 531.123 623.7 532.828 613.369C536.239 592.712 539.962 566.815 541.203 545.899C542.444 525.002 544.773 456.854 546.732 393.469C547.712 361.774 548.599 331.265 549.212 308.444C549.518 297.033 549.755 287.544 549.902 280.788C549.975 277.411 550.025 274.716 550.049 272.805C550.062 271.85 550.067 271.089 550.066 270.537C550.066 270.003 550.059 269.624 550.039 269.468L550.036 269.443L550.03 269.419C548.717 263.651 547.097 257.956 545.178 252.36V237.735H581.821V252.36C579.903 257.956 578.283 263.651 576.97 269.419Z" stroke="#488D41"/>
<path d="M472.711 627.042L472.711 627.042C485.572 635.465 494.389 647.711 494.955 665.386C495.521 683.056 487.843 706.227 467.536 736.5H410.821V729.207C410.843 729.188 410.867 729.166 410.892 729.143C411.05 729.002 411.284 728.793 411.585 728.52C412.188 727.973 413.065 727.169 414.161 726.137C416.352 724.073 419.421 721.098 422.932 717.454C429.951 710.167 438.75 700.192 445.842 689.453C452.923 678.73 458.35 667.176 458.53 656.747C458.62 651.518 457.391 646.565 454.388 642.153C451.45 637.838 446.838 634.074 440.179 631.071C440.23 630.95 440.292 630.806 440.368 630.642C440.617 630.098 441.002 629.336 441.544 628.473C442.63 626.745 444.334 624.626 446.816 623.027C449.289 621.433 452.552 620.344 456.787 620.69C461.031 621.036 466.281 622.825 472.711 627.042Z" stroke="#488D41"/>
<path d="M522.539 730.85L522.464 730.971V731.114V736.5H468.303V729.143C468.319 729.12 468.337 729.095 468.357 729.067C468.455 728.93 468.599 728.726 468.784 728.46C469.155 727.928 469.691 727.144 470.357 726.137C471.688 724.122 473.537 721.21 475.609 717.619C479.751 710.438 484.792 700.531 488.371 689.64C491.948 678.753 494.078 666.847 492.359 655.682C490.653 644.596 485.154 634.263 473.574 626.417C473.652 626.208 473.781 625.905 473.985 625.539C474.4 624.793 475.129 623.781 476.374 622.763C478.858 620.729 483.45 618.628 491.838 618.628C500.188 618.628 510.146 620.973 518.044 623.332C521.987 624.51 525.405 625.688 527.837 626.571C529.053 627.013 530.022 627.381 530.687 627.638C531.019 627.767 531.275 627.868 531.448 627.936C531.458 627.94 531.467 627.944 531.476 627.948C531.505 628.062 531.544 628.216 531.591 628.409C531.705 628.874 531.869 629.562 532.069 630.454C532.469 632.237 533.013 634.832 533.586 638.075C534.733 644.561 535.997 653.636 536.469 663.988C537.413 684.71 535.177 710.471 522.539 730.85Z" stroke="#488D41"/>
<path d="M716.107 729.144C716.133 729.167 716.157 729.188 716.179 729.208V736.5H659.463C639.093 706.227 631.423 683.057 632.009 665.386C632.595 647.712 641.443 635.465 654.289 627.042C660.719 622.825 665.969 621.036 670.213 620.69C674.448 620.344 677.71 621.433 680.184 623.027C682.665 624.626 684.37 626.745 685.455 628.473C685.998 629.336 686.383 630.098 686.632 630.642C686.707 630.806 686.77 630.95 686.821 631.071C680.146 634.082 675.522 637.852 672.576 642.171C669.563 646.588 668.329 651.543 668.416 656.773C668.59 667.206 674.021 678.758 681.111 689.477C688.21 700.212 697.021 710.182 704.05 717.463C707.566 721.105 710.64 724.077 712.834 726.14C713.932 727.171 714.809 727.975 715.413 728.521C715.715 728.794 715.949 729.003 716.107 729.144Z" stroke="#488D41"/>
<path d="M658.674 729.067C658.694 729.095 658.712 729.121 658.729 729.143V736.5H604.568V731.114V730.971L604.493 730.85C591.855 710.471 589.61 684.733 590.546 664.036C591.014 653.696 592.275 644.633 593.419 638.155C593.99 634.917 594.533 632.326 594.932 630.545C595.132 629.655 595.295 628.968 595.409 628.503C595.456 628.31 595.495 628.156 595.524 628.042C595.533 628.038 595.543 628.034 595.553 628.03C595.725 627.96 595.98 627.859 596.311 627.729C596.973 627.469 597.939 627.097 599.151 626.651C601.576 625.759 604.985 624.569 608.922 623.379C616.807 620.996 626.764 618.628 635.161 618.628C643.55 618.628 648.142 620.729 650.626 622.763C651.871 623.781 652.599 624.793 653.015 625.539C653.219 625.905 653.347 626.207 653.425 626.417C641.822 634.262 636.313 644.596 634.605 655.682C632.885 666.847 635.021 678.754 638.609 689.64C642.198 700.532 647.252 710.439 651.404 717.619C653.482 721.21 655.335 724.122 656.67 726.137C657.337 727.145 657.875 727.928 658.246 728.461C658.432 728.727 658.576 728.93 658.674 729.067Z" stroke="#488D41"/>
<path d="M603.568 729.109V736.5H523.464V729.109C533.365 710.846 535.585 685.446 535.346 664.66C535.227 654.234 534.489 644.946 533.78 638.264C533.426 634.923 533.079 632.233 532.82 630.377C532.691 629.449 532.584 628.73 532.509 628.242C532.477 628.037 532.452 627.873 532.432 627.752C533.922 626.279 535.521 624.92 537.215 623.687C544.862 618.149 554.061 615.167 563.5 615.167C572.94 615.167 582.138 618.149 589.786 623.687C591.479 624.92 593.078 626.279 594.568 627.752C594.548 627.873 594.523 628.037 594.491 628.242C594.416 628.73 594.309 629.449 594.18 630.377C593.921 632.233 593.575 634.923 593.221 638.264C592.512 644.946 591.775 654.234 591.657 664.66C591.423 685.446 593.651 710.846 603.568 729.109Z" stroke="#488D41"/>
<path d="M581.222 661.28C581.269 661.363 581.302 661.427 581.323 661.47L587.622 728.386H539.25L545.549 661.474C545.571 661.431 545.605 661.368 545.652 661.286C545.755 661.11 545.921 660.847 546.171 660.52C546.668 659.866 547.496 658.952 548.802 657.951C551.401 655.959 555.908 653.611 563.5 652.299C571.091 653.611 575.566 655.959 578.132 657.95C579.421 658.949 580.233 659.862 580.718 660.515C580.961 660.842 581.123 661.104 581.222 661.28Z" stroke="#488D41"/>
<path d="M502.986 668.66L502.986 668.659C502.357 663.388 503.184 660.155 504.733 658.243C506.272 656.345 508.618 655.634 511.317 655.632C513.56 655.728 515.761 656.27 517.792 657.226C519.826 658.184 521.649 659.539 523.153 661.212C524.657 662.884 525.812 664.84 526.551 666.965C527.29 669.09 527.598 671.341 527.456 673.587L527.456 673.587L527.456 673.595C527.107 681.089 526.242 691.02 524.179 701.008C522.134 710.907 518.919 720.825 513.888 728.482H480.6C480.753 728.263 480.935 728.002 481.144 727.699C481.846 726.681 482.845 725.199 484.034 723.343C486.412 719.633 489.552 714.424 492.602 708.432C498.687 696.476 504.467 681.293 502.986 668.66Z" stroke="#488D41"/>
<path d="M624.014 668.659L624.014 668.66C622.533 681.277 628.313 696.46 634.398 708.419C637.447 714.414 640.588 719.626 642.966 723.339C644.155 725.196 645.154 726.678 645.856 727.698C646.065 728.001 646.247 728.263 646.401 728.482H613.111C608.081 720.825 604.866 710.907 602.821 701.008C600.757 691.02 599.893 681.089 599.544 673.595L599.544 673.595L599.543 673.587C599.402 671.341 599.709 669.09 600.448 666.965C601.187 664.84 602.343 662.884 603.847 661.212C605.351 659.539 607.174 658.184 609.208 657.226C611.24 656.269 613.442 655.727 615.685 655.632C618.431 655.603 620.775 656.314 622.3 658.217C623.839 660.136 624.643 663.386 624.014 668.659Z" stroke="#488D41"/>
<path d="M535.767 170.99V170.766L535.6 170.617L529.917 165.548V152.335H563.5H597.082V165.548L591.399 170.617L591.232 170.766V170.99V236.735H563.5H535.767V170.99Z" stroke="#488D41"/>
<path d="M552.713 170.99V170.882L552.669 170.784L550.36 165.664V152.335H563.5H576.639V165.664L574.33 170.784L574.286 170.882V170.99V236.735H563.5H552.713V170.99Z" stroke="#488D41"/>
<path d="M547.708 55.0042H579.229C579.271 55.0295 579.325 55.0617 579.389 55.1005C579.565 55.2079 579.819 55.3656 580.123 55.5652C580.733 55.965 581.543 56.5299 582.349 57.1932C583.159 57.8587 583.949 58.6108 584.532 59.3827C585.121 60.1638 585.452 60.906 585.446 61.563V61.5678V151.335H541.49V61.5678C541.49 60.9087 541.826 60.1647 542.417 59.3831C543.001 58.6107 543.791 57.8584 544.599 57.1929C545.404 56.5295 546.211 55.9645 546.818 55.5647C547.121 55.3651 547.373 55.2074 547.549 55.1C547.612 55.0614 547.666 55.0294 547.708 55.0042Z" stroke="#488D41"/>
<path d="M576.798 61.5803V151.335H550.52V61.5678C550.52 60.0954 551.398 58.4398 552.351 57.0963C552.819 56.4367 553.287 55.8754 553.639 55.479C553.815 55.2811 553.961 55.125 554.062 55.019C554.067 55.0139 554.072 55.009 554.077 55.0042H572.929C572.937 55.0114 572.944 55.0189 572.952 55.0267C573.058 55.133 573.211 55.2894 573.395 55.4877C573.765 55.8848 574.259 56.447 574.757 57.1078C575.767 58.4502 576.722 60.1061 576.798 61.5803Z" stroke="#488D41"/>
<path d="M559.176 73.2338C560.322 72.0819 561.876 71.4307 563.5 71.4223C565.123 71.4307 566.678 72.0819 567.823 73.2338C568.969 74.3863 569.613 75.9461 569.613 77.5722V151.335H557.387V77.5723C557.387 75.9461 558.03 74.3863 559.176 73.2338Z" stroke="#488D41"/>
<path d="M548.104 54.0042V41.0043H578.865V54.0042H548.104Z" stroke="#488D41"/>
<path d="M600.355 424.238H526.649C526.903 420.693 527.133 417.124 527.361 413.58C527.366 413.51 527.37 413.44 527.375 413.37H599.657L600.355 424.238Z" stroke="#488D41"/>
<path d="M517.486 545.899C517.76 543.587 518.033 540.843 518.333 537.588H608.639C608.683 538.027 608.726 538.457 608.768 538.88C609.041 541.603 609.279 543.973 609.516 545.927C609.621 546.841 609.725 547.692 609.847 548.551H517.185C517.201 548.451 517.216 548.352 517.232 548.252C517.358 547.46 517.483 546.672 517.486 545.899Z" stroke="#488D41"/>
<path d="M595.75 351.852H531.249C531.372 349.651 531.502 347.489 531.631 345.351C531.72 343.875 531.808 342.41 531.893 340.952H595.107C595.191 342.41 595.28 343.874 595.369 345.351C595.498 347.488 595.628 349.651 595.75 351.852Z" stroke="#488D41"/>
<path d="M605.786 502.542H521.214C521.292 501.493 521.371 500.434 521.45 499.365C521.636 496.86 521.825 494.3 522.028 491.674H604.972C605.175 494.302 605.365 496.864 605.551 499.37C605.63 500.437 605.708 501.494 605.786 502.542Z" stroke="#488D41"/>
<path d="M620.373 594.369H506.626C507.7 590.78 508.745 587.139 509.739 583.469H617.26C618.254 587.139 619.299 590.78 620.373 594.369Z" stroke="#488D41"/>
<path d="M581.487 424.238H545.512L545.862 413.37H581.138L581.487 424.238Z" stroke="#488D41"/>
<path d="M586.178 548.551H540.822L540.981 545.899L540.981 545.899L540.981 545.896C541.019 545.179 541.074 544.411 541.133 543.593C541.261 541.825 541.405 539.821 541.425 537.588H585.596C585.747 540.853 585.898 543.65 586.019 545.896L586.019 545.899L586.178 548.551Z" stroke="#488D41"/>
<path d="M547.77 351.852C547.806 350.76 547.848 349.673 547.89 348.593C547.991 346.012 548.09 343.466 548.102 340.952H578.909C578.946 342.267 578.998 343.581 579.05 344.901C579.141 347.188 579.233 349.493 579.245 351.852H547.77Z" stroke="#488D41"/>
<path d="M583.943 495.173C584.068 497.692 584.189 500.14 584.204 502.542H542.811C542.911 499.606 543.028 496.594 543.149 493.49C543.173 492.888 543.196 492.283 543.22 491.674H583.78C583.829 492.857 583.887 494.023 583.943 495.173Z" stroke="#488D41"/>
<path d="M591.408 594.369H535.592C536.115 590.781 536.638 587.139 537.135 583.469H589.864C590.361 587.139 590.884 590.781 591.408 594.369Z" stroke="#488D41"/>
<path d="M203.346 557.652C192.365 550.638 172.376 541.742 140.684 541.742C109.026 541.742 89.015 550.561 78.0501 557.625C82.7882 544.358 98.0575 514.306 140.684 510.385C183.378 514.309 198.785 544.41 203.346 557.652Z" stroke="#488D41"/>
<path d="M101.296 567.438L101.015 567.575V567.887V581.376L70.8579 595.266V568.716C70.8867 568.685 70.9206 568.648 70.9596 568.607C71.1141 568.443 71.3493 568.2 71.6675 567.889C72.3038 567.267 73.2725 566.375 74.5931 565.303C77.2344 563.157 81.2836 560.289 86.8993 557.419C98.128 551.68 115.632 545.924 140.684 545.924C165.753 545.924 183.264 551.68 194.497 557.419C200.114 560.289 204.165 563.157 206.806 565.303C208.127 566.375 209.096 567.267 209.733 567.889C210.051 568.2 210.286 568.443 210.44 568.607C210.479 568.649 210.513 568.685 210.542 568.716V595.266L180.353 581.376V567.887V567.575L180.072 567.438L140.903 548.347L140.684 548.24L140.465 548.347L101.296 567.438Z" stroke="#488D41"/>
<path d="M239.425 612.369V601.014L261.552 611.781L280.785 736.5H251.615C250.479 725.814 247.997 705.281 243.656 686.547C241.455 677.05 238.772 667.993 235.534 660.911C233.914 657.369 232.149 654.305 230.225 651.923C228.302 649.542 226.198 647.815 223.896 646.993C221.527 646.149 219.367 646.653 217.453 648.183C215.568 649.69 213.919 652.191 212.464 655.367C209.55 661.726 207.324 671.002 205.621 681.148C202.26 701.18 200.915 724.773 200.421 736.5H80.9795C80.4839 724.773 79.0758 701.211 75.6835 681.195C73.9652 671.057 71.7314 661.786 68.8299 655.421C67.381 652.243 65.7432 649.738 63.877 648.222C61.9832 646.684 59.846 646.163 57.5055 646.993C55.2326 647.799 53.1518 649.517 51.2463 651.89C49.3388 654.265 47.5835 657.326 45.9689 660.867C42.7397 667.948 40.0443 677.014 37.8237 686.523C33.4436 705.278 30.8916 725.842 29.7537 736.5H0.583016L19.8162 611.781L41.9437 601.014V612.369V613.149L42.6527 612.823L104.903 584.187L105.195 584.053V583.733V570.205L140.684 552.917L176.174 570.205V583.733V584.053L176.465 584.187L238.716 612.823L239.425 613.149V612.369Z" stroke="#488D41"/>
<path d="M239.425 612.369V601.014L261.552 611.781L280.785 736.5H251.615C250.479 725.813 247.997 705.256 243.656 686.5C241.455 676.991 238.772 667.922 235.533 660.83C233.914 657.284 232.149 654.217 230.225 651.832C228.302 649.448 226.199 647.719 223.895 646.898C221.527 646.053 219.366 646.558 217.453 648.088C215.568 649.595 213.918 652.095 212.463 655.271C209.549 661.631 207.323 670.906 205.621 681.053C202.26 701.085 200.914 724.678 200.421 736.405H141.184V553.16L176.174 570.205V583.733V584.053L176.465 584.187L238.716 612.823L239.425 613.149V612.369Z" stroke="#488D41"/>
<path d="M1045.17 562.649L1028.34 558.118V553.019H1029.14H1029.64V552.519V540.301V539.801H1029.14H1002.98H1002.48V540.301V552.519V553.019H1002.98H1003.78V557.174H961.985V553.019H962.789H963.289V552.519V540.301V539.801H962.789H936.623H936.123V540.301V552.519V553.019H936.623H937.427V558.118L920.597 562.649C925.419 536.904 940.849 523.99 955.147 517.494C962.374 514.21 969.314 512.566 974.449 511.745C977.015 511.334 979.128 511.129 980.598 511.026C981.332 510.975 981.906 510.95 982.295 510.937C982.489 510.93 982.637 510.927 982.736 510.926C982.785 510.925 982.822 510.925 982.847 510.924L982.874 510.924L982.88 510.924L982.882 510.924H982.882L982.883 510.924L982.889 510.924L982.917 510.924C982.941 510.925 982.978 510.925 983.028 510.926C983.127 510.927 983.275 510.931 983.469 510.937C983.858 510.95 984.432 510.976 985.167 511.028C986.637 511.131 988.751 511.337 991.319 511.749C996.456 512.573 1003.4 514.22 1010.63 517.505C1024.93 524.005 1040.36 536.92 1045.17 562.649Z" stroke="#488D41"/>
<path d="M1106.77 591.919L1106.81 592.112L1106.97 592.224L1113.84 597.023L1126.48 736.5H1101.53L1097.71 669.772L1097.71 669.737L1097.7 669.704C1096.65 664.398 1094.17 659.48 1090.53 655.486C1086.89 651.491 1082.22 648.573 1077.03 647.048L1076.89 647.006L1076.75 647.049C1071.75 648.561 1067.32 651.529 1064.02 655.573C1060.72 659.617 1058.7 664.554 1058.21 669.754L1058.21 669.786L1058.21 669.819L1060.7 736.5H1005.7V662.96V662.926L1005.7 662.894C1004.88 656.779 1002.31 651.032 998.3 646.35C994.286 641.668 989.001 638.252 983.086 636.516L982.946 636.475L982.805 636.516C976.886 638.244 971.597 641.658 967.582 646.342C963.567 651.025 961.001 656.776 960.195 662.894L960.19 662.927V662.96V736.532H905.158L907.619 669.851L907.62 669.818L907.617 669.786C907.132 664.586 905.109 659.649 901.807 655.605C898.505 651.56 894.073 648.593 889.078 647.081L888.935 647.038L888.792 647.08C883.61 648.604 878.945 651.522 875.306 655.517C871.668 659.513 869.195 664.431 868.159 669.736L868.152 669.77L868.15 669.803L864.299 736.532H839.343L851.99 597.051L858.704 592.22L858.856 592.111L858.899 591.928L861.514 580.684L863.1 591.41L863.128 591.599L863.274 591.721L869.032 596.523L870.982 615.094L871.038 615.635L871.573 615.533L912.904 607.642L913.31 607.564V607.151V581.171L922.034 572.408L922.146 572.296L922.173 572.141L924.195 560.468L926.626 572.662L926.68 572.933L926.938 573.032L938.952 577.618V604.16V604.66H939.452H1026.44H1026.94V604.16V577.618L1038.95 573.032L1039.21 572.933L1039.26 572.662L1041.7 560.468L1043.72 572.141L1043.74 572.296L1043.86 572.408L1052.58 581.171V607.151V607.564L1052.99 607.642L1094.32 615.533L1094.85 615.635L1094.91 615.094L1096.86 596.524L1102.65 591.722L1102.79 591.6L1102.82 591.41L1104.39 580.815L1106.77 591.919Z" stroke="#488D41"/>
<path d="M1026.31 604.628H1026.81V604.128V577.586L1038.86 573L1039.11 572.902L1039.17 572.631L1041.14 562.77V736.5H1005.67V662.959V662.926L1005.66 662.894C1004.85 656.779 1002.28 651.032 998.268 646.35C994.254 641.668 988.97 638.252 983.054 636.516L982.914 636.475L982.773 636.516C976.854 638.244 971.565 641.658 967.55 646.342C963.535 651.025 960.969 656.776 960.163 662.894L960.158 662.927V662.959V736.5H920.761L924.561 562.271L926.626 572.631L926.68 572.901L926.938 573L938.952 577.586V604.128V604.628H939.452H1026.31Z" stroke="#488D41"/>
</svg>
