<svg width="432" height="321" viewBox="0 0 432 321" fill="none" xmlns="http://www.w3.org/2000/svg">
<g clip-path="url(#clip0_88_1662)">
<path d="M11.29 294.9H424.85" stroke="#263238" stroke-linecap="round" stroke-linejoin="round"/>
<path d="M31.8599 126.34C31.8599 126.34 47.4399 144.6 51.3999 186.93C55.3599 229.26 59.9099 260.13 59.9099 260.13" stroke="#263238" stroke-width="2" stroke-linecap="round" stroke-linejoin="round"/>
<path d="M7.18 92.93C5.96 92.78 4.84 93.59 4.6 94.79C2.29 106.54 -7.7 163.04 15.71 155.59C35.15 149.41 33.87 135.19 31.95 128.32C31.55 126.9 32.97 125.64 34.33 126.21C41.91 129.34 58.4 134.27 60.22 118.79C62.32 100.96 17.6 94.25 7.18 92.93Z" fill="#92E3A9" stroke="#263238" stroke-linecap="round" stroke-linejoin="round"/>
<path d="M15.71 103.21C19.24 107.2 23.65 112.95 27.87 120.58" stroke="#263238" stroke-linecap="round" stroke-linejoin="round"/>
<path d="M8.58984 96.24C8.58984 96.24 10.1898 97.46 12.6998 99.99" stroke="#263238" stroke-linecap="round" stroke-linejoin="round"/>
<path d="M26.0998 124.47C26.0998 124.47 19.5698 117.6 3.5498 120.57" stroke="#263238" stroke-linecap="round" stroke-linejoin="round"/>
<path d="M33.2202 101.29C33.2202 101.29 36.1902 109.6 33.2202 120.58" stroke="#263238" stroke-linecap="round" stroke-linejoin="round"/>
<path d="M6.2998 138.06C5.2798 138.95 4.3498 139.94 3.5498 141.04" stroke="#263238" stroke-linecap="round" stroke-linejoin="round"/>
<path d="M27.8798 130.37C27.8798 130.37 17.1098 130.93 9.08984 136.01" stroke="#263238" stroke-linecap="round" stroke-linejoin="round"/>
<path d="M36.7798 124.47C36.7798 124.47 48.9498 120.87 51.9098 110.93" stroke="#263238" stroke-linecap="round" stroke-linejoin="round"/>
<path d="M75.7104 187.64C75.7104 187.64 66.8004 198.08 64.5404 222.29C62.2804 246.5 59.6704 264.15 59.6704 264.15" stroke="#263238" stroke-width="2" stroke-linecap="round" stroke-linejoin="round"/>
<path d="M88.9902 169.6C89.6902 169.51 90.3302 169.98 90.4702 170.66C91.7902 177.38 97.5102 209.69 84.1102 205.43C72.9902 201.89 73.7202 193.76 74.8202 189.84C75.0502 189.03 74.2402 188.31 73.4602 188.63C69.1202 190.42 59.6902 193.24 58.6502 184.39C57.4502 174.19 83.0302 170.35 88.9902 169.6Z" fill="#92E3A9" stroke="#263238" stroke-linecap="round" stroke-linejoin="round"/>
<path d="M84.1001 175.48C82.0801 177.76 79.5601 181.05 77.1401 185.41" stroke="#263238" stroke-linecap="round" stroke-linejoin="round"/>
<path d="M88.1801 171.49C88.1801 171.49 87.2601 172.19 85.8301 173.63" stroke="#263238" stroke-linecap="round" stroke-linejoin="round"/>
<path d="M78.1602 187.64C78.1602 187.64 81.8902 183.71 91.0602 185.41" stroke="#263238" stroke-linecap="round" stroke-linejoin="round"/>
<path d="M74.09 174.38C74.09 174.38 72.39 179.13 74.09 185.41" stroke="#263238" stroke-linecap="round" stroke-linejoin="round"/>
<path d="M89.4902 195.41C90.0702 195.92 90.6102 196.49 91.0702 197.12" stroke="#263238" stroke-linecap="round" stroke-linejoin="round"/>
<path d="M77.1504 191.01C77.1504 191.01 83.3104 191.33 87.9004 194.23" stroke="#263238" stroke-linecap="round" stroke-linejoin="round"/>
<path d="M72.0604 187.64C72.0604 187.64 65.1004 185.58 63.4004 179.9" stroke="#263238" stroke-linecap="round" stroke-linejoin="round"/>
<path d="M33.6602 177.91C33.6602 177.91 48.0402 194.76 51.6902 233.83C52.8402 246.19 54.0502 257.49 55.1702 267.16" stroke="#263238" stroke-width="2" stroke-linecap="round" stroke-linejoin="round"/>
<path d="M6.32011 165.61C5.42011 165.92 4.91011 166.87 5.16011 167.79C7.55011 176.77 19.8501 219.57 33.6301 206.39C45.0701 195.45 39.3401 185.97 35.6501 181.84C34.8901 180.99 35.4501 179.63 36.5901 179.56C42.9401 179.16 56.1201 176.98 52.1201 165.56C47.5001 152.41 14.0401 162.98 6.32011 165.61Z" fill="#92E3A9" stroke="#263238" stroke-linecap="round" stroke-linejoin="round"/>
<path opacity="0.2" d="M6.32011 165.61C5.42011 165.92 4.91011 166.87 5.16011 167.79C7.55011 176.77 19.8501 219.57 33.6301 206.39C45.0701 195.45 39.3401 185.97 35.6501 181.84C34.8901 180.99 35.4501 179.63 36.5901 179.56C42.9401 179.16 56.1201 176.98 52.1201 165.56C47.5001 152.41 14.0401 162.98 6.32011 165.61Z" fill="#263238"/>
<path d="M15.77 169.86C19.6 171.44 24.63 173.94 30.17 177.82" stroke="#263238" stroke-linecap="round" stroke-linejoin="round"/>
<path d="M8.43018 167.43C8.43018 167.43 9.96018 167.74 12.5702 168.64" stroke="#263238" stroke-linecap="round" stroke-linejoin="round"/>
<path d="M30.26 181.15C30.26 181.15 23.37 178.59 13.21 186.12" stroke="#263238" stroke-linecap="round" stroke-linejoin="round"/>
<path d="M27.3203 162.56C27.3203 162.56 32.2203 167.34 33.8903 176.01" stroke="#263238" stroke-linecap="round" stroke-linejoin="round"/>
<path d="M21.0899 197.38C20.6799 198.35 20.3699 199.36 20.1899 200.4" stroke="#263238" stroke-linecap="round" stroke-linejoin="round"/>
<path d="M33.5101 184.65C33.5101 184.65 26.1901 188.71 22.3301 194.99" stroke="#263238" stroke-linecap="round" stroke-linejoin="round"/>
<path d="M37.71 177.51C37.71 177.51 44.97 170.85 43.65 162.91" stroke="#263238" stroke-linecap="round" stroke-linejoin="round"/>
<path d="M64.0798 294.9H49.5898C43.9498 294.9 39.2998 290.48 39.0098 284.85L37.5298 256.29H76.1398L74.6598 284.85C74.3698 290.48 69.7198 294.9 64.0798 294.9Z" fill="#999999" stroke="#263238" stroke-linecap="round" stroke-linejoin="round"/>
<path d="M275.76 251.71C276.05 248.99 283.65 176.69 283.93 173.97C284.38 169.67 288.23 166.19 292.53 166.19H405.21L395.4 259.5H282.72C278.42 259.5 275.3 256.01 275.76 251.72V251.71Z" fill="#92E3A9"/>
<mask id="mask0_88_1662" style="mask-type:luminance" maskUnits="userSpaceOnUse" x="275" y="166" width="131" height="94">
<path d="M275.76 251.71C276.05 248.99 283.65 176.69 283.93 173.97C284.38 169.67 288.23 166.19 292.53 166.19H405.21L395.4 259.5H282.72C278.42 259.5 275.3 256.01 275.76 251.72V251.71Z" fill="white"/>
</mask>
<g mask="url(#mask0_88_1662)">
<path opacity="0.6" d="M275.76 251.71C276.05 248.99 283.65 176.69 283.93 173.97C284.38 169.67 288.23 166.19 292.53 166.19H405.21L395.4 259.5H282.72C278.42 259.5 275.3 256.01 275.76 251.72V251.71Z" fill="white"/>
</g>
<path d="M275.76 251.71C276.05 248.99 283.65 176.69 283.93 173.97C284.38 169.67 288.23 166.19 292.53 166.19H405.21L395.4 259.5H282.72C278.42 259.5 275.3 256.01 275.76 251.72V251.71Z" stroke="#263238" stroke-linecap="round" stroke-linejoin="round"/>
<path d="M395.4 185.51C396.08 179.05 396.55 174.61 396.61 173.97C397.06 169.67 400.91 166.19 405.21 166.19C409.51 166.19 412.63 169.67 412.17 173.97C411.82 177.32 404.35 248.36 404 251.71C403.55 256.01 399.7 259.49 395.4 259.49C391.1 259.49 387.98 256.01 388.44 251.71C388.64 249.84 392.31 214.91 394.66 192.49" fill="#92E3A9"/>
<mask id="mask1_88_1662" style="mask-type:luminance" maskUnits="userSpaceOnUse" x="388" y="166" width="25" height="94">
<path d="M395.4 185.51C396.08 179.05 396.55 174.61 396.61 173.97C397.06 169.67 400.91 166.19 405.21 166.19C409.51 166.19 412.63 169.67 412.17 173.97C411.82 177.32 404.35 248.36 404 251.71C403.55 256.01 399.7 259.49 395.4 259.49C391.1 259.49 387.98 256.01 388.44 251.71C388.64 249.84 392.31 214.91 394.66 192.49" fill="white"/>
</mask>
<g mask="url(#mask1_88_1662)">
<path opacity="0.3" d="M396.61 173.97C397.06 169.67 400.91 166.19 405.21 166.19C409.51 166.19 412.63 169.67 412.17 173.97C411.82 177.32 404.35 248.36 404 251.71C403.55 256.01 399.7 259.49 395.4 259.49C391.1 259.49 387.98 256.01 388.44 251.71C388.73 248.99 396.33 176.69 396.61 173.97Z" fill="white"/>
</g>
<path d="M395.4 185.51C396.08 179.05 396.55 174.61 396.61 173.97C397.06 169.67 400.91 166.19 405.21 166.19C409.51 166.19 412.63 169.67 412.17 173.97C411.82 177.32 404.35 248.36 404 251.71C403.55 256.01 399.7 259.49 395.4 259.49C391.1 259.49 387.98 256.01 388.44 251.71C388.64 249.84 392.31 214.91 394.66 192.49" stroke="#263238" stroke-linecap="round" stroke-linejoin="round"/>
<path d="M364 201.61H415.87C424.47 201.61 431.43 208.58 431.43 217.17C431.43 225.76 424.46 232.73 415.87 232.73V290.51C415.87 292.93 413.91 294.89 411.49 294.89H352.8C350.38 294.89 348.42 292.93 348.42 290.51V217.16C348.42 208.56 355.39 201.6 363.98 201.6L364 201.61Z" fill="#92E3A9"/>
<mask id="mask2_88_1662" style="mask-type:luminance" maskUnits="userSpaceOnUse" x="348" y="201" width="84" height="94">
<path d="M364 201.61H415.87C424.47 201.61 431.43 208.58 431.43 217.17C431.43 225.76 424.46 232.73 415.87 232.73V290.51C415.87 292.93 413.91 294.89 411.49 294.89H352.8C350.38 294.89 348.42 292.93 348.42 290.51V217.16C348.42 208.56 355.39 201.6 363.98 201.6L364 201.61Z" fill="white"/>
</mask>
<g mask="url(#mask2_88_1662)">
<path opacity="0.6" d="M364 201.61H415.87C424.47 201.61 431.43 208.58 431.43 217.17C431.43 225.76 424.46 232.73 415.87 232.73V290.51C415.87 292.93 413.91 294.89 411.49 294.89H352.8C350.38 294.89 348.42 292.93 348.42 290.51V217.16C348.42 208.56 355.39 201.6 363.98 201.6L364 201.61Z" fill="white"/>
</g>
<path d="M364 201.61H415.87C424.47 201.61 431.43 208.58 431.43 217.17C431.43 225.76 424.46 232.73 415.87 232.73V290.51C415.87 292.93 413.91 294.89 411.49 294.89H352.8C350.38 294.89 348.42 292.93 348.42 290.51V217.16C348.42 208.56 355.39 201.6 363.98 201.6L364 201.61Z" stroke="#263238" stroke-linecap="round" stroke-linejoin="round"/>
<path d="M264.16 201.61H212.29C203.69 201.61 196.73 208.58 196.73 217.17C196.73 225.76 203.7 232.73 212.29 232.73V290.51C212.29 292.93 214.25 294.89 216.67 294.89H275.36C277.78 294.89 279.74 292.93 279.74 290.51V217.16C279.74 208.56 272.77 201.6 264.18 201.6L264.16 201.61Z" fill="#92E3A9"/>
<mask id="mask3_88_1662" style="mask-type:luminance" maskUnits="userSpaceOnUse" x="196" y="201" width="84" height="94">
<path d="M264.16 201.61H212.29C203.69 201.61 196.73 208.58 196.73 217.17C196.73 225.76 203.7 232.73 212.29 232.73V290.51C212.29 292.93 214.25 294.89 216.67 294.89H275.36C277.78 294.89 279.74 292.93 279.74 290.51V217.16C279.74 208.56 272.77 201.6 264.18 201.6L264.16 201.61Z" fill="white"/>
</mask>
<g mask="url(#mask3_88_1662)">
<path opacity="0.3" d="M264.16 201.61H212.29C203.69 201.61 196.73 208.58 196.73 217.17C196.73 225.76 203.7 232.73 212.29 232.73V290.51C212.29 292.93 214.25 294.89 216.67 294.89H275.36C277.78 294.89 279.74 292.93 279.74 290.51V217.16C279.74 208.56 272.77 201.6 264.18 201.6L264.16 201.61Z" fill="white"/>
</g>
<path d="M264.16 201.61H212.29C203.69 201.61 196.73 208.58 196.73 217.17C196.73 225.76 203.7 232.73 212.29 232.73V290.51C212.29 292.93 214.25 294.89 216.67 294.89H275.36C277.78 294.89 279.74 292.93 279.74 290.51V217.16C279.74 208.56 272.77 201.6 264.18 201.6L264.16 201.61Z" stroke="#263238" stroke-linecap="round" stroke-linejoin="round"/>
<path d="M212.29 201.61C203.69 201.61 196.73 208.58 196.73 217.17C196.73 225.76 203.7 232.73 212.29 232.73V290.51C212.29 292.93 214.25 294.89 216.67 294.89H223.48C225.9 294.89 227.86 292.93 227.86 290.51V217.16C227.86 208.56 220.89 201.6 212.3 201.6L212.29 201.61Z" fill="#92E3A9" stroke="#263238" stroke-linecap="round" stroke-linejoin="round"/>
<path d="M212.29 201.61C203.69 201.61 196.73 208.58 196.73 217.17C196.73 225.76 203.7 232.73 212.29 232.73V290.51C212.29 292.93 214.25 294.89 216.67 294.89H223.48C225.9 294.89 227.86 292.93 227.86 290.51V217.16C227.86 208.56 220.89 201.6 212.3 201.6L212.29 201.61Z" fill="#92E3A9"/>
<mask id="mask4_88_1662" style="mask-type:luminance" maskUnits="userSpaceOnUse" x="196" y="201" width="32" height="94">
<path d="M212.29 201.61C203.69 201.61 196.73 208.58 196.73 217.17C196.73 225.76 203.7 232.73 212.29 232.73V290.51C212.29 292.93 214.25 294.89 216.67 294.89H223.48C225.9 294.89 227.86 292.93 227.86 290.51V217.16C227.86 208.56 220.89 201.6 212.3 201.6L212.29 201.61Z" fill="white"/>
</mask>
<g mask="url(#mask4_88_1662)">
<path opacity="0.6" d="M212.29 201.61C203.69 201.61 196.73 208.58 196.73 217.17C196.73 225.76 203.7 232.73 212.29 232.73V290.51C212.29 292.93 214.25 294.89 216.67 294.89H223.48C225.9 294.89 227.86 292.93 227.86 290.51V217.16C227.86 208.56 220.89 201.6 212.3 201.6L212.29 201.61Z" fill="white"/>
</g>
<path d="M212.29 201.61C203.69 201.61 196.73 208.58 196.73 217.17C196.73 225.76 203.7 232.73 212.29 232.73V290.51C212.29 292.93 214.25 294.89 216.67 294.89H223.48C225.9 294.89 227.86 292.93 227.86 290.51V217.16C227.86 208.56 220.89 201.6 212.3 201.6L212.29 201.61Z" stroke="#263238" stroke-linecap="round" stroke-linejoin="round"/>
<path d="M237.51 270.74V287.92C237.51 291.77 240.63 294.89 244.48 294.89H341.46C345.31 294.89 348.43 291.77 348.43 287.92V257.9C348.43 257.17 348.32 256.46 348.11 255.8C348.32 255.22 348.43 254.6 348.43 253.95V247.9C348.43 244.84 345.95 242.36 342.89 242.36H233.38C230.32 242.36 227.84 244.84 227.84 247.9V253.95C227.84 257.01 230.32 259.49 233.38 259.49H237.5V265.24" fill="#92E3A9"/>
<mask id="mask5_88_1662" style="mask-type:luminance" maskUnits="userSpaceOnUse" x="227" y="242" width="122" height="53">
<path d="M237.51 270.74V287.92C237.51 291.77 240.63 294.89 244.48 294.89H341.46C345.31 294.89 348.43 291.77 348.43 287.92V257.9C348.43 257.17 348.32 256.46 348.11 255.8C348.32 255.22 348.43 254.6 348.43 253.95V247.9C348.43 244.84 345.95 242.36 342.89 242.36H233.38C230.32 242.36 227.84 244.84 227.84 247.9V253.95C227.84 257.01 230.32 259.49 233.38 259.49H237.5V265.24" fill="white"/>
</mask>
<g mask="url(#mask5_88_1662)">
<path opacity="0.3" d="M348.43 247.91C348.43 244.85 345.95 242.37 342.89 242.37H233.38C230.32 242.37 227.84 244.85 227.84 247.91V253.96C227.84 257.02 230.32 259.5 233.38 259.5H237.5V287.93C237.5 291.78 240.62 294.9 244.47 294.9H341.45C345.3 294.9 348.42 291.78 348.42 287.93V257.91C348.42 257.18 348.31 256.47 348.1 255.81C348.31 255.23 348.42 254.61 348.42 253.96V247.91H348.43Z" fill="white"/>
</g>
<path d="M237.51 270.74V287.92C237.51 291.77 240.63 294.89 244.48 294.89H341.46C345.31 294.89 348.43 291.77 348.43 287.92V257.9C348.43 257.17 348.32 256.46 348.11 255.8C348.32 255.22 348.43 254.6 348.43 253.95V247.9C348.43 244.84 345.95 242.36 342.89 242.36H233.38C230.32 242.36 227.84 244.84 227.84 247.9V253.95C227.84 257.01 230.32 259.49 233.38 259.49H237.5V265.24" stroke="#263238" stroke-linecap="round" stroke-linejoin="round"/>
<path d="M418.21 217.17H431.43C431.43 225.77 424.46 232.73 415.87 232.73H364C372.6 232.73 379.56 225.76 379.56 217.17H412.22" fill="#92E3A9"/>
<mask id="mask6_88_1662" style="mask-type:luminance" maskUnits="userSpaceOnUse" x="364" y="217" width="68" height="16">
<path d="M418.21 217.17H431.43C431.43 225.77 424.46 232.73 415.87 232.73H364C372.6 232.73 379.56 225.76 379.56 217.17H412.22" fill="white"/>
</mask>
<g mask="url(#mask6_88_1662)">
<g opacity="0.3">
<path d="M379.56 217.17H431.43C431.43 225.77 424.46 232.73 415.87 232.73H364C372.6 232.73 379.56 225.76 379.56 217.17Z" fill="white"/>
</g>
</g>
<path d="M418.21 217.17H431.43C431.43 225.77 424.46 232.73 415.87 232.73H364C372.6 232.73 379.56 225.76 379.56 217.17H412.22" stroke="#263238" stroke-linecap="round" stroke-linejoin="round"/>
<path d="M117.07 0.5H95.2999C86.9499 0.5 80.1899 7.27 80.1899 15.61V256.38C80.1899 264.73 86.9599 271.49 95.2999 271.49H117.07V0.5Z" fill="#999999" stroke="#263238" stroke-linecap="round" stroke-linejoin="round"/>
<path d="M84.2201 41.27H81.4201C79.8737 41.27 78.6201 42.5236 78.6201 44.07V61.8C78.6201 63.3464 79.8737 64.6 81.4201 64.6H84.2201C85.7665 64.6 87.0201 63.3464 87.0201 61.8V44.07C87.0201 42.5236 85.7665 41.27 84.2201 41.27Z" fill="#263238" stroke="#263238" stroke-linecap="round" stroke-linejoin="round"/>
<path d="M84.2201 44.07C84.2201 42.52 82.9701 41.27 81.4201 41.27C79.8701 41.27 78.6201 42.52 78.6201 44.07V61.8C78.6201 63.35 79.8701 64.6 81.4201 64.6C82.9701 64.6 84.2201 63.35 84.2201 61.8V44.07Z" fill="#92E3A9" stroke="#263238" stroke-linecap="round" stroke-linejoin="round"/>
<path d="M84.2201 70.2H81.4201C79.8737 70.2 78.6201 71.4536 78.6201 73V77.93C78.6201 79.4764 79.8737 80.73 81.4201 80.73H84.2201C85.7665 80.73 87.0201 79.4764 87.0201 77.93V73C87.0201 71.4536 85.7665 70.2 84.2201 70.2Z" fill="#263238" stroke="#263238" stroke-linecap="round" stroke-linejoin="round"/>
<path d="M84.2201 73C84.2201 71.45 82.9701 70.2 81.4201 70.2C79.8701 70.2 78.6201 71.45 78.6201 73V77.93C78.6201 79.48 79.8701 80.73 81.4201 80.73C82.9701 80.73 84.2201 79.48 84.2201 77.93V73Z" fill="#92E3A9" stroke="#263238" stroke-linecap="round" stroke-linejoin="round"/>
<path d="M206.08 0.5H105.3C96.9549 0.5 90.1899 7.26498 90.1899 15.61V256.39C90.1899 264.735 96.9549 271.5 105.3 271.5H206.08C214.425 271.5 221.19 264.735 221.19 256.39V15.61C221.19 7.26498 214.425 0.5 206.08 0.5Z" fill="#92E3A9"/>
<mask id="mask7_88_1662" style="mask-type:luminance" maskUnits="userSpaceOnUse" x="90" y="0" width="132" height="272">
<path d="M206.08 0.5H105.3C96.9549 0.5 90.1899 7.26498 90.1899 15.61V256.39C90.1899 264.735 96.9549 271.5 105.3 271.5H206.08C214.425 271.5 221.19 264.735 221.19 256.39V15.61C221.19 7.26498 214.425 0.5 206.08 0.5Z" fill="white"/>
</mask>
<g mask="url(#mask7_88_1662)">
<path opacity="0.5" d="M206.08 0.5H105.3C96.9549 0.5 90.1899 7.26498 90.1899 15.61V256.39C90.1899 264.735 96.9549 271.5 105.3 271.5H206.08C214.425 271.5 221.19 264.735 221.19 256.39V15.61C221.19 7.26498 214.425 0.5 206.08 0.5Z" fill="white"/>
<path opacity="0.3" d="M71.5997 257.5H18.4897L198.61 9.5H251.72L71.5997 257.5Z" fill="white"/>
<path opacity="0.3" d="M93.7598 257.5H82.0298L262.15 9.5H273.88L93.7598 257.5Z" fill="white"/>
</g>
<path d="M206.08 0.5H105.3C96.9549 0.5 90.1899 7.26498 90.1899 15.61V256.39C90.1899 264.735 96.9549 271.5 105.3 271.5H206.08C214.425 271.5 221.19 264.735 221.19 256.39V15.61C221.19 7.26498 214.425 0.5 206.08 0.5Z" stroke="#263238" stroke-linecap="round" stroke-linejoin="round"/>
<path d="M206.07 0.5H105.3C96.9499 0.5 90.1899 7.27 90.1899 15.61V18.5H221.19V15.61C221.19 7.26 214.42 0.5 206.08 0.5H206.07Z" fill="#263238" stroke="#263238" stroke-linecap="round" stroke-linejoin="round"/>
<path d="M159.35 12.02C160.74 12.02 161.87 10.89 161.87 9.49998C161.87 8.10998 160.74 6.97998 159.35 6.97998H143.39C142 6.97998 140.87 8.10998 140.87 9.49998C140.87 10.89 142 12.02 143.39 12.02H159.35Z" fill="#999999" stroke="#263238" stroke-linecap="round" stroke-linejoin="round"/>
<path d="M167.99 12.02C169.382 12.02 170.51 10.8917 170.51 9.49998C170.51 8.10822 169.382 6.97998 167.99 6.97998C166.598 6.97998 165.47 8.10822 165.47 9.49998C165.47 10.8917 166.598 12.02 167.99 12.02Z" fill="#999999" stroke="#263238" stroke-linecap="round" stroke-linejoin="round"/>
<path d="M90.1899 246.5V256.39C90.1899 264.74 96.9599 271.5 105.3 271.5H206.07C214.42 271.5 221.18 264.73 221.18 256.39V246.5H90.1899Z" fill="#263238" stroke="#263238" stroke-linecap="round" stroke-linejoin="round"/>
<path d="M155.69 266.55C159.86 266.55 163.24 263.17 163.24 259C163.24 254.83 159.86 251.45 155.69 251.45C151.52 251.45 148.14 254.83 148.14 259C148.14 263.17 151.52 266.55 155.69 266.55Z" fill="#999999" stroke="#263238" stroke-linecap="round" stroke-linejoin="round"/>
<path d="M153.69 101.96C173.219 101.96 189.05 86.1288 189.05 66.6C189.05 47.0712 173.219 31.24 153.69 31.24C134.161 31.24 118.33 47.0712 118.33 66.6C118.33 86.1288 134.161 101.96 153.69 101.96Z" fill="#999999"/>
<path d="M155.69 99.96C175.219 99.96 191.05 84.1288 191.05 64.6C191.05 45.0712 175.219 29.24 155.69 29.24C136.161 29.24 120.33 45.0712 120.33 64.6C120.33 84.1288 136.161 99.96 155.69 99.96Z" fill="white"/>
<mask id="mask8_88_1662" style="mask-type:luminance" maskUnits="userSpaceOnUse" x="120" y="29" width="72" height="71">
<path d="M155.69 99.96C175.219 99.96 191.05 84.1288 191.05 64.6C191.05 45.0712 175.219 29.24 155.69 29.24C136.161 29.24 120.33 45.0712 120.33 64.6C120.33 84.1288 136.161 99.96 155.69 99.96Z" fill="white"/>
</mask>
<g mask="url(#mask8_88_1662)">
<path d="M132.83 104.71L132.24 100.05C131.52 94.4 145.09 87.31 145.09 87.31L158.56 89.37L165.76 84.3C180.14 87.3 178.07 90.19 178.41 94.19C178.6 96.39 179 98.85 179 98.85L132.83 104.71Z" fill="#92E3A9" stroke="#263238" stroke-linecap="round" stroke-linejoin="round"/>
<path d="M148.86 68.1001C148.86 68.1001 151.9 74.8601 147.22 85.8901L158.54 89.0901L163.11 83.8701L160.41 71.8101L148.86 68.1001Z" fill="white"/>
<mask id="mask9_88_1662" style="mask-type:luminance" maskUnits="userSpaceOnUse" x="147" y="68" width="17" height="22">
<path d="M148.86 68.1001C148.86 68.1001 151.9 74.8601 147.22 85.8901L158.54 89.0901L163.11 83.8701L160.41 71.8101L148.86 68.1001Z" fill="white"/>
</mask>
<g mask="url(#mask9_88_1662)">
<path d="M148.38 69.2C148.38 69.2 151.73 81.65 163.35 81.23C174.97 80.82 152.13 66.73 152.13 66.73L149.31 66.52L148.39 69.19L148.38 69.2Z" fill="#263238"/>
</g>
<path d="M148.86 68.1001C148.86 68.1001 151.9 74.8601 147.22 85.8901L158.54 89.0901L163.11 83.8701L160.41 71.8101L148.86 68.1001Z" stroke="#263238" stroke-linecap="round" stroke-linejoin="round"/>
<path d="M148.86 68.1C148.86 68.1 144.13 67.62 142.36 52.95C140.92 41.04 148.14 33.04 157.66 33.18C167.86 33.33 174.18 44.92 180.25 45.63C180.25 45.63 174.28 48.19 171.92 46.69C171.92 46.69 176.68 50.72 172.39 52.68C168.1 54.64 148.85 68.09 148.85 68.09L148.86 68.1Z" fill="#263238" stroke="#263238" stroke-miterlimit="10"/>
<path d="M172.02 49.7099L173.2 59.0199C173.2 59.0199 175.16 65.3399 173.46 70.1899C171.76 75.0399 169.75 80.5099 163.99 79.3099C158.24 78.1099 153.39 77.9499 148.85 68.0999L150.09 63.6899C150.09 63.6899 146.82 63.7599 146.27 57.9199C145.72 52.0799 151.39 55.6699 151.39 55.6699C151.39 55.6699 153.8 51.8199 153.72 46.6199C153.64 41.4199 163.15 49.6699 168.77 48.1899L164.54 43.6699C164.54 43.6699 170.78 46.5799 172.01 49.7099H172.02Z" fill="white" stroke="#263238" stroke-linecap="round" stroke-linejoin="round"/>
<path d="M166.86 59.25L169.74 63.2C170.17 63.79 169.91 64.63 169.22 64.88L166.36 65.89" stroke="#263238" stroke-linecap="round" stroke-linejoin="round"/>
<path d="M158.73 68.98C158.73 68.98 161.35 71.35 166.38 69.94" stroke="#263238" stroke-linecap="round" stroke-linejoin="round"/>
<path d="M160.24 58.8201C160.27 59.8201 159.94 60.6501 159.5 60.6601C159.06 60.6701 158.69 59.8701 158.66 58.8601C158.63 57.8601 158.96 57.0301 159.4 57.0201C159.84 57.0101 160.21 57.8101 160.24 58.8201Z" fill="#263238"/>
<path d="M169.89 58.5401C169.92 59.5401 169.59 60.3701 169.15 60.3801C168.71 60.3901 168.34 59.5901 168.31 58.5801C168.28 57.5801 168.61 56.7501 169.05 56.7401C169.49 56.7301 169.86 57.5301 169.89 58.5401Z" fill="#263238"/>
<path d="M156.92 56.49C156.92 56.49 158.82 53.21 163.03 54.8" stroke="#263238" stroke-linecap="round" stroke-linejoin="round"/>
<path d="M168.11 54.6501C168.11 54.6501 170.28 52.7301 172.21 55.7201" stroke="#263238" stroke-linecap="round" stroke-linejoin="round"/>
<path d="M169.36 42.3301C170.26 43.0101 171 43.5501 171.56 43.7801" stroke="#7F7F7F" stroke-linecap="round" stroke-linejoin="round"/>
<path d="M147.75 51.26C147.75 51.26 146.68 40.65 153.82 37.15C159.1 34.56 164.72 38.77 168.44 41.62" stroke="#7F7F7F" stroke-linecap="round" stroke-linejoin="round"/>
<path d="M156.51 41.0701C158.24 41.0501 160.64 42.1701 163.82 45.9201" stroke="#7F7F7F" stroke-linecap="round" stroke-linejoin="round"/>
<path d="M152.78 43.7402C152.78 43.7402 153.21 42.7202 154.16 41.9402" stroke="#7F7F7F" stroke-linecap="round" stroke-linejoin="round"/>
<path d="M142.96 88.0702L146.41 84.8302L158.13 88.1702L163.53 82.6602L167.3 84.0102L163.71 91.8102L158.55 89.9501L154.83 94.0901L142.96 88.0702Z" fill="#92E3A9"/>
<mask id="mask10_88_1662" style="mask-type:luminance" maskUnits="userSpaceOnUse" x="142" y="82" width="26" height="13">
<path d="M142.96 88.0702L146.41 84.8302L158.13 88.1702L163.53 82.6602L167.3 84.0102L163.71 91.8102L158.55 89.9501L154.83 94.0901L142.96 88.0702Z" fill="white"/>
</mask>
<g mask="url(#mask10_88_1662)">
<path opacity="0.5" d="M142.96 88.0702L146.41 84.8302L158.13 88.1702L163.53 82.6602L167.3 84.0102L163.71 91.8102L158.55 89.9501L154.83 94.0901L142.96 88.0702Z" fill="white"/>
</g>
<path d="M142.96 88.0702L146.41 84.8302L158.13 88.1702L163.53 82.6602L167.3 84.0102L163.71 91.8102L158.55 89.9501L154.83 94.0901L142.96 88.0702Z" stroke="#263238" stroke-linecap="round" stroke-linejoin="round"/>
</g>
<path d="M155.69 99.96C175.219 99.96 191.05 84.1288 191.05 64.6C191.05 45.0712 175.219 29.24 155.69 29.24C136.161 29.24 120.33 45.0712 120.33 64.6C120.33 84.1288 136.161 99.96 155.69 99.96Z" stroke="#263238" stroke-linecap="round" stroke-linejoin="round"/>
<path d="M181.03 80.73H169.65C166.569 80.73 164.07 83.2282 164.07 86.31V97.69C164.07 100.772 166.569 103.27 169.65 103.27H181.03C184.112 103.27 186.61 100.772 186.61 97.69V86.31C186.61 83.2282 184.112 80.73 181.03 80.73Z" fill="#92E3A9" stroke="#263238" stroke-linecap="round" stroke-linejoin="round"/>
<path d="M178.36 87.23C178.05 86.6 177.4 86.2 176.7 86.2H173.99C173.29 86.2 172.65 86.6 172.33 87.23" stroke="#263238" stroke-linecap="round" stroke-linejoin="round"/>
<path d="M170.55 87.79C169.53 87.79 168.7 88.62 168.7 89.64V95.95C168.7 96.97 169.53 97.8 170.55 97.8H180.15C181.17 97.8 182 96.97 182 95.95V89.64C182 88.62 181.17 87.79 180.15 87.79" stroke="#263238" stroke-linecap="round" stroke-linejoin="round"/>
<path d="M175.35 90.1899C173.91 90.1899 172.74 91.3599 172.74 92.7999C172.74 94.2399 173.91 95.4099 175.35 95.4099C176.79 95.4099 177.96 94.2399 177.96 92.7999C177.96 91.3599 176.79 90.1899 175.35 90.1899Z" stroke="#263238" stroke-linecap="round" stroke-linejoin="round"/>
<path d="M199.56 216.06H109.82C104.916 216.06 100.94 220.036 100.94 224.94V233.18C100.94 238.084 104.916 242.06 109.82 242.06H199.56C204.464 242.06 208.44 238.084 208.44 233.18V224.94C208.44 220.036 204.464 216.06 199.56 216.06Z" fill="#999999"/>
<path d="M200.56 213.06H110.82C105.916 213.06 101.94 217.036 101.94 221.94V230.18C101.94 235.084 105.916 239.06 110.82 239.06H200.56C205.464 239.06 209.44 235.084 209.44 230.18V221.94C209.44 217.036 205.464 213.06 200.56 213.06Z" fill="#92E3A9" stroke="#263238" stroke-linecap="round" stroke-linejoin="round"/>
<path d="M113.21 223.09C113.21 221.57 114.44 220.35 115.95 220.35C117.46 220.35 118.69 221.58 118.69 223.09C118.69 224.61 117.46 225.83 115.95 225.83M115.95 216.95C112.56 216.95 109.81 219.7 109.81 223.09C109.81 225.48 112.85 230.35 114.65 233.03C115.27 233.96 116.63 233.96 117.25 233.03C119.05 230.35 122.09 225.47 122.09 223.09C122.09 219.7 119.34 216.95 115.95 216.95Z" stroke="#263238" stroke-linecap="round" stroke-linejoin="round"/>
<path d="M188.58 218.78H137.89C136.35 218.78 135.1 220.03 135.1 221.57C135.1 223.11 136.35 224.36 137.89 224.36H188.58C190.12 224.36 191.37 223.11 191.37 221.57C191.37 220.03 190.12 218.78 188.58 218.78Z" fill="#858585" stroke="#263238" stroke-linecap="round" stroke-linejoin="round"/>
<path d="M173.82 227.75H137.89C136.35 227.75 135.1 229 135.1 230.54C135.1 232.08 136.35 233.33 137.89 233.33H173.82C175.36 233.33 176.61 232.08 176.61 230.54C176.61 229 175.36 227.75 173.82 227.75Z" fill="#999999" stroke="#263238" stroke-linecap="round" stroke-linejoin="round"/>
<path d="M191.75 227.75H181.48C179.94 227.75 178.69 229 178.69 230.54C178.69 232.08 179.94 233.33 181.48 233.33H191.75C193.29 233.33 194.54 232.08 194.54 230.54C194.54 229 193.29 227.75 191.75 227.75Z" fill="#999999" stroke="#263238" stroke-linecap="round" stroke-linejoin="round"/>
<path d="M213.56 183.56H123.82C118.916 183.56 114.94 187.536 114.94 192.44V200.68C114.94 205.584 118.916 209.56 123.82 209.56H213.56C218.464 209.56 222.44 205.584 222.44 200.68V192.44C222.44 187.536 218.464 183.56 213.56 183.56Z" fill="#999999"/>
<path d="M214.56 180.56H124.82C119.916 180.56 115.94 184.536 115.94 189.44V197.68C115.94 202.584 119.916 206.56 124.82 206.56H214.56C219.464 206.56 223.44 202.584 223.44 197.68V189.44C223.44 184.536 219.464 180.56 214.56 180.56Z" fill="#92E3A9" stroke="#263238" stroke-linecap="round" stroke-linejoin="round"/>
<path d="M124.61 196.36V197.65C124.61 197.85 124.72 198.04 124.9 198.13L129.69 200.72C129.85 200.81 130.05 200.81 130.21 200.72L135 198.13C135.18 198.03 135.29 197.85 135.29 197.65V196.37" stroke="#263238" stroke-linecap="round" stroke-linejoin="round"/>
<path d="M137.66 198.51C137.66 196.63 137.66 194.75 137.66 192.87L139.03 192.13C139.41 191.92 139.41 191.38 139.03 191.17L130.21 186.39C130.05 186.3 129.85 186.3 129.69 186.39L120.87 191.17C120.49 191.38 120.49 191.92 120.87 192.13L129.69 196.91C129.85 197 130.05 197 130.21 196.91L135.28 194.16" stroke="#263238" stroke-linecap="round" stroke-linejoin="round"/>
<path d="M202.58 186.28H151.89C150.35 186.28 149.1 187.53 149.1 189.07C149.1 190.61 150.35 191.86 151.89 191.86H202.58C204.12 191.86 205.37 190.61 205.37 189.07C205.37 187.53 204.12 186.28 202.58 186.28Z" fill="#858585" stroke="#263238" stroke-linecap="round" stroke-linejoin="round"/>
<path d="M178.82 195.25H151.89C150.35 195.25 149.1 196.5 149.1 198.04C149.1 199.58 150.35 200.83 151.89 200.83H178.82C180.36 200.83 181.61 199.58 181.61 198.04C181.61 196.5 180.36 195.25 178.82 195.25Z" fill="#999999" stroke="#263238" stroke-linecap="round" stroke-linejoin="round"/>
<path d="M196.98 195.25H186.71C185.17 195.25 183.92 196.5 183.92 198.04C183.92 199.58 185.17 200.83 186.71 200.83H196.98C198.52 200.83 199.77 199.58 199.77 198.04C199.77 196.5 198.52 195.25 196.98 195.25Z" fill="#999999" stroke="#263238" stroke-linecap="round" stroke-linejoin="round"/>
<path d="M186.56 151.06H96.8199C91.9156 151.06 87.9399 155.036 87.9399 159.94V168.18C87.9399 173.084 91.9156 177.06 96.8199 177.06H186.56C191.464 177.06 195.44 173.084 195.44 168.18V159.94C195.44 155.036 191.464 151.06 186.56 151.06Z" fill="#999999"/>
<path d="M187.56 148.06H97.8199C92.9156 148.06 88.9399 152.036 88.9399 156.94V165.18C88.9399 170.084 92.9156 174.06 97.8199 174.06H187.56C192.464 174.06 196.44 170.084 196.44 165.18V156.94C196.44 152.036 192.464 148.06 187.56 148.06Z" fill="#92E3A9" stroke="#263238" stroke-linecap="round" stroke-linejoin="round"/>
<path d="M103.37 162.15H102.53C101.978 162.15 101.53 162.598 101.53 163.15V165.3C101.53 165.852 101.978 166.3 102.53 166.3H103.37C103.923 166.3 104.37 165.852 104.37 165.3V163.15C104.37 162.598 103.923 162.15 103.37 162.15Z" stroke="#263238" stroke-linecap="round" stroke-linejoin="round"/>
<path d="M96.1304 165.05C96.1304 166.77 97.5204 168.16 99.2404 168.16H106.65C108.37 168.16 109.76 166.77 109.76 165.05" stroke="#263238" stroke-linecap="round" stroke-linejoin="round"/>
<path d="M98.0102 155.83H97.0302C96.1302 155.83 95.4102 156.56 95.4102 157.45V160.68C95.4102 162.43 96.8301 163.86 98.5901 163.86H99.5502M106.36 163.86H107.32C109.07 163.86 110.5 162.44 110.5 160.68V157.45C110.5 156.55 109.77 155.83 108.88 155.83H107.9M100.35 155.83V155.47C100.35 154.63 101.03 153.95 101.87 153.95H104.06C104.9 153.95 105.58 154.63 105.58 155.47V155.83" stroke="#263238" stroke-linecap="round" stroke-linejoin="round"/>
<path d="M175.58 153.78H124.89C123.35 153.78 122.1 155.03 122.1 156.57C122.1 158.11 123.35 159.36 124.89 159.36H175.58C177.12 159.36 178.37 158.11 178.37 156.57C178.37 155.03 177.12 153.78 175.58 153.78Z" fill="#858585" stroke="#263238" stroke-linecap="round" stroke-linejoin="round"/>
<path d="M166.82 162.75H124.89C123.35 162.75 122.1 164 122.1 165.54C122.1 167.08 123.35 168.33 124.89 168.33H166.82C168.36 168.33 169.61 167.08 169.61 165.54C169.61 164 168.36 162.75 166.82 162.75Z" fill="#999999" stroke="#263238" stroke-linecap="round" stroke-linejoin="round"/>
<path d="M287.22 297.02L286.9 305.27C286.9 305.27 277.56 311.51 273.48 312.86C271.5 313.52 266.05 314.22 266.05 316.68C266.05 319.14 273.09 319.52 276.84 319.52C278.81 319.52 283.92 319.33 290.22 319.26C295.9 319.2 300.93 318.42 300.93 315.71C300.93 309.98 297.97 305.26 297.97 305.26L299.16 297.03H287.22V297.02Z" fill="white" stroke="#263238" stroke-linecap="round" stroke-linejoin="round"/>
<path d="M288.35 153.98C288.35 153.98 286.9 176.58 287.19 192.62C287.43 205.47 284.89 242.97 284.89 242.97L285.89 299.61L299.82 300.61C299.82 300.61 307.27 270.33 305.63 243.61C305.63 243.61 311.17 206.27 312.84 194.27C312.84 194.27 324.06 179.59 323.61 153.73L288.36 153.98H288.35Z" fill="#263238"/>
<path d="M294.74 174.46C294.74 174.46 297.05 180.34 303.54 185.33" stroke="#7F7F7F" stroke-linecap="round" stroke-linejoin="round"/>
<path d="M266.05 316.68C266.05 319.14 273.09 319.52 276.84 319.52C278.81 319.52 283.92 319.33 290.22 319.26C295.9 319.2 300.93 318.42 300.93 315.71C300.93 309.98 297.97 305.26 297.97 305.26C295.29 306.24 294.28 309.9 294.28 309.9C294.28 309.9 287.16 311.02 289.03 308.51C290.9 306 286.9 305.28 286.9 305.28C286.9 305.28 277.56 311.52 273.48 312.87C271.5 313.53 266.05 314.23 266.05 316.69V316.68Z" fill="#92E3A9" stroke="#263238" stroke-linecap="round" stroke-linejoin="round"/>
<path d="M284.88 296.21L285.16 300.96L300.47 302.27L301.78 297.49L284.88 296.21Z" fill="#999999" stroke="#263238" stroke-linecap="round" stroke-linejoin="round"/>
<path d="M295.02 240.2C296.65 241.47 298.89 242.79 301.79 243.6C308.89 245.6 294.96 246.1 294.42 248.85" stroke="#7F7F7F" stroke-linecap="round" stroke-linejoin="round"/>
<path d="M291.55 236.61C291.55 236.61 292.07 237.44 293.15 238.55" stroke="#7F7F7F" stroke-linecap="round" stroke-linejoin="round"/>
<path d="M261.28 131.2L253.17 136.78C253.17 136.78 251.09 135.08 248.65 135.2C246.21 135.32 243.85 136.61 242.21 136.78C240.34 136.98 234.77 135.93 234.77 137.66C234.77 140.2 244.29 139.26 244.59 140.45C244.89 141.64 238.27 143.32 238.27 143.32L237.46 144.89L250.65 146.14C250.65 146.14 256.46 146.76 259.21 142.83L269.71 136.78L263.4 129.39L261.28 131.2Z" fill="white" stroke="#263238" stroke-linecap="round" stroke-linejoin="round"/>
<path d="M288.22 77.5C285.06 86.71 281.79 114.73 281.79 114.73L259.08 131.11L266.04 139.87C266.04 139.87 288.62 128.57 292.22 125.78C295.82 122.99 300.08 93.31 302.31 87.38C304.54 81.45 303.21 75.15 297.5 72.8C291.79 70.45 289.07 75.04 288.22 77.5Z" fill="#92E3A9" stroke="#263238" stroke-linecap="round" stroke-linejoin="round"/>
<path d="M256.94 130.12L261.6 126.17L270.98 138.97L265.81 142.1L256.94 130.12Z" fill="#92E3A9"/>
<mask id="mask11_88_1662" style="mask-type:luminance" maskUnits="userSpaceOnUse" x="256" y="126" width="15" height="17">
<path d="M256.94 130.12L261.6 126.17L270.98 138.97L265.81 142.1L256.94 130.12Z" fill="white"/>
</mask>
<g mask="url(#mask11_88_1662)">
<path opacity="0.5" d="M256.94 130.12L261.6 126.17L270.98 138.97L265.81 142.1L256.94 130.12Z" fill="white"/>
</g>
<path d="M256.94 130.12L261.6 126.17L270.98 138.97L265.81 142.1L256.94 130.12Z" stroke="#263238" stroke-linecap="round" stroke-linejoin="round"/>
<path d="M303.33 63.0402L322.64 60.4202L307.01 70.4402L304.16 70.9002L303.33 63.0402Z" fill="#92E3A9" stroke="#263238" stroke-linecap="round" stroke-linejoin="round"/>
<path d="M303.68 59.3701C303.68 59.3701 296.97 61.8501 295.47 57.1901C293.97 52.5201 293.97 48.4201 293.97 48.4201L291.5 47.0402C290.88 46.6902 290.68 45.8902 291.08 45.2902L294.96 39.5402C294.96 39.5402 293.84 35.3802 294.46 33.2002C295.08 31.0102 298.1 24.2601 298.1 24.2601C298.1 24.2601 312.81 12.8801 320.32 25.0101C327.83 37.1402 317.92 53.2701 317.92 53.2701L320.32 65.1401L306.13 72.1401L303.67 59.3601L303.68 59.3701Z" fill="white"/>
<mask id="mask12_88_1662" style="mask-type:luminance" maskUnits="userSpaceOnUse" x="290" y="19" width="34" height="54">
<path d="M303.68 59.3701C303.68 59.3701 296.97 61.8501 295.47 57.1901C293.97 52.5201 293.97 48.4201 293.97 48.4201L291.5 47.0402C290.88 46.6902 290.68 45.8902 291.08 45.2902L294.96 39.5402C294.96 39.5402 293.84 35.3802 294.46 33.2002C295.08 31.0102 298.1 24.2601 298.1 24.2601C298.1 24.2601 312.81 12.8801 320.32 25.0101C327.83 37.1402 317.92 53.2701 317.92 53.2701L320.32 65.1401L306.13 72.1401L303.67 59.3601L303.68 59.3701Z" fill="white"/>
</mask>
<g mask="url(#mask12_88_1662)">
<path d="M303.681 59.3702C303.681 59.3702 307.271 57.9302 310.031 55.4002C310.391 55.0702 310.951 55.4402 310.781 55.9002C309.921 58.2302 307.921 62.2802 303.681 65.3902C297.351 70.0202 303.681 59.3702 303.681 59.3702Z" fill="#999999"/>
</g>
<path d="M303.68 59.3701C303.68 59.3701 296.97 61.8501 295.47 57.1901C293.97 52.5201 293.97 48.4201 293.97 48.4201L291.5 47.0402C290.88 46.6902 290.68 45.8902 291.08 45.2902L294.96 39.5402C294.96 39.5402 293.84 35.3802 294.46 33.2002C295.08 31.0102 298.1 24.2601 298.1 24.2601C298.1 24.2601 312.81 12.8801 320.32 25.0101C327.83 37.1402 317.92 53.2701 317.92 53.2701L320.32 65.1401L306.13 72.1401L303.67 59.3601L303.68 59.3701Z" stroke="#263238" stroke-linecap="round" stroke-linejoin="round"/>
<path d="M295.66 33.8802C295.66 33.8802 298.06 31.7602 300.7 35.2702" stroke="#263238" stroke-linecap="round" stroke-linejoin="round"/>
<path d="M298.11 50.1002C298.11 50.1002 299.87 51.3702 302.61 49.2002" stroke="#263238" stroke-linecap="round" stroke-linejoin="round"/>
<path d="M298.69 38.29C298.69 38.99 298.35 39.55 297.93 39.55C297.51 39.55 297.17 38.99 297.17 38.29C297.17 37.59 297.51 37.03 297.93 37.03C298.35 37.03 298.69 37.59 298.69 38.29Z" fill="#263238"/>
<path d="M310.52 39.5501C310.52 39.5501 312.78 35.2701 315.67 38.2901C320.15 42.9801 313.52 46.3901 313.52 46.3901C313.52 46.3901 314.27 50.2801 317.94 53.2701C317.94 53.2701 319.77 51.2601 321.81 48.7601C323.85 46.2601 329.4 37.1201 325.44 26.8801C325.44 26.8801 325.85 17.4101 311.48 15.5201C297.11 13.6301 295.55 20.8201 290.89 20.1001C290.89 20.1001 294.43 23.2601 297.94 20.9801C297.94 20.9801 297.05 23.7601 293.89 24.0101C293.89 24.0101 298.23 27.7301 302.62 26.7601C307.01 25.7901 305.08 32.6901 310.53 39.5401L310.52 39.5501Z" fill="#263238" stroke="#263238" stroke-miterlimit="10"/>
<path d="M321.8 24.9602C322.23 25.7502 322.57 26.6302 322.8 27.6002" stroke="#7F7F7F" stroke-linecap="round" stroke-linejoin="round"/>
<path d="M301.41 18.4302C301.41 18.4302 314.37 16.4502 320.3 22.8502" stroke="#7F7F7F" stroke-linecap="round" stroke-linejoin="round"/>
<path d="M302.1 23.1899C301.3 23.3099 300.47 23.4599 299.61 23.6499" stroke="#7F7F7F" stroke-linecap="round" stroke-linejoin="round"/>
<path d="M320.33 29.52C320.33 29.52 316.79 22.37 305.23 22.88" stroke="#7F7F7F" stroke-linecap="round" stroke-linejoin="round"/>
<path d="M319.98 47.9102C319.62 48.5402 319.23 49.1802 318.8 49.8302" stroke="#7F7F7F" stroke-linecap="round" stroke-linejoin="round"/>
<path d="M323.2 32.7302C323.67 35.3002 323.85 39.9502 321.1 45.7702" stroke="#7F7F7F" stroke-linecap="round" stroke-linejoin="round"/>
<path d="M327.28 299.02L327.96 305.27C327.96 305.27 318.62 311.51 314.54 312.86C312.56 313.52 307.11 314.22 307.11 316.68C307.11 319.14 314.15 319.52 317.9 319.52C319.87 319.52 324.98 319.33 331.28 319.26C336.96 319.2 341.99 318.42 341.99 315.71C341.99 309.98 339.03 305.26 339.03 305.26L338.66 297.5L327.29 299.03L327.28 299.02Z" fill="white" stroke="#263238" stroke-linecap="round" stroke-linejoin="round"/>
<path d="M334.03 310.15C331.03 310.15 329.91 309.27 329.91 309.27C332.41 307.15 327.97 305.27 327.97 305.27C327.97 305.27 318.63 311.51 314.55 312.86C312.57 313.52 307.12 314.22 307.12 316.68C307.12 319.14 314.16 319.52 317.91 319.52C319.88 319.52 324.99 319.33 331.29 319.26C336.97 319.2 342 318.42 342 315.71C342 309.98 339.04 305.26 339.04 305.26C335.67 306.62 337.04 310.15 334.04 310.15H334.03Z" fill="#92E3A9" stroke="#263238" stroke-linecap="round" stroke-linejoin="round"/>
<path d="M303.68 154.11H334.64C334.64 154.11 338.36 172.67 337.26 191.14C336.16 209.61 337.73 241.46 337.73 241.46C337.73 241.46 341.55 257.71 339.49 300.61L326.73 301.61C326.73 301.61 317.64 259.23 315.83 242.61C314.75 232.7 312.22 206.58 309.68 196.93C307.06 186.95 304.58 183.18 303.68 154.11Z" fill="#263238"/>
<path d="M335.37 293.6C335.41 294.86 335.45 296.15 335.49 297.49" stroke="#7F7F7F" stroke-linecap="round" stroke-linejoin="round"/>
<path d="M329.16 208.44C329.63 219.8 329.93 234.17 330.83 242.27C332.24 254.9 334.15 261 335.23 289.27" stroke="#7F7F7F" stroke-linecap="round" stroke-linejoin="round"/>
<path d="M318.5 167.53C319.9 170.91 322.33 174.6 326.5 176.61C326.5 176.61 327.5 186.61 328.5 197.28C328.66 198.94 328.79 200.91 328.91 203.09" stroke="#7F7F7F" stroke-linecap="round" stroke-linejoin="round"/>
<path d="M316.61 160.09C316.61 160.09 316.76 162.12 317.54 164.82" stroke="#7F7F7F" stroke-linecap="round" stroke-linejoin="round"/>
<path d="M303.98 163.76C303.93 162.72 303.88 161.64 303.83 160.51" stroke="#7F7F7F" stroke-linecap="round" stroke-linejoin="round"/>
<path d="M306.38 185.31C305.49 181.39 304.73 176.24 304.19 167.52" stroke="#7F7F7F" stroke-linecap="round" stroke-linejoin="round"/>
<path d="M310.96 203.08C310.54 200.66 310.11 198.56 309.68 196.93C309.1 194.7 308.52 191.88 307.96 190.08" stroke="#7F7F7F" stroke-linecap="round" stroke-linejoin="round"/>
<path d="M324.59 298.39L325.63 303.04L340.95 301.85L341.45 297.19L324.59 298.39Z" fill="#999999" stroke="#263238" stroke-linecap="round" stroke-linejoin="round"/>
<path d="M336.09 113.3C336.41 93.0201 343.43 70.8401 343.43 70.8401C343.43 70.8401 336.77 63.4101 322.88 62.0701L307.41 71.3301L304.16 70.8901L302.87 64.6501C293.99 68.0901 288.23 74.2401 287.49 80.4601C286.39 89.7601 289.16 117.74 288.16 135.79C287.56 146.54 286.85 157.81 286.85 157.81L299.3 160.51L301.55 157.45L305.27 160.51L337.85 157.2C337.85 157.2 335.77 133.58 336.09 113.3Z" fill="#92E3A9" stroke="#263238" stroke-linecap="round" stroke-linejoin="round"/>
<path d="M303.68 62.5202L305.56 69.8402L322.66 59.9102L326.82 62.0802L313.46 75.0702L305.36 71.1702L299.63 74.2402L300.25 64.7002L303.68 62.5202Z" fill="#92E3A9"/>
<mask id="mask13_88_1662" style="mask-type:luminance" maskUnits="userSpaceOnUse" x="299" y="59" width="28" height="17">
<path d="M303.68 62.5202L305.56 69.8402L322.66 59.9102L326.82 62.0802L313.46 75.0702L305.36 71.1702L299.63 74.2402L300.25 64.7002L303.68 62.5202Z" fill="white"/>
</mask>
<g mask="url(#mask13_88_1662)">
<path opacity="0.5" d="M303.68 62.5202L305.56 69.8402L322.66 59.9102L326.82 62.0802L313.46 75.0702L305.36 71.1702L299.63 74.2402L300.25 64.7002L303.68 62.5202Z" fill="white"/>
</g>
<path d="M303.68 62.5202L305.56 69.8402L322.66 59.9102L326.82 62.0802L313.46 75.0702L305.36 71.1702L299.63 74.2402L300.25 64.7002L303.68 62.5202Z" stroke="#263238" stroke-linecap="round" stroke-linejoin="round"/>
<path d="M301.62 150.27C301.64 152.55 301.66 153.73 301.66 153.73" stroke="#263238" stroke-linecap="round" stroke-linejoin="round"/>
<path d="M303.84 81.4302C302.96 87.4002 301.82 98.0902 301.66 113.78C301.51 129.68 301.54 141.18 301.59 147.65" stroke="#263238" stroke-linecap="round" stroke-linejoin="round"/>
<path d="M304.85 75.7202C304.85 75.7202 304.6 76.7502 304.25 78.8302" stroke="#263238" stroke-linecap="round" stroke-linejoin="round"/>
<path d="M284.68 108.89H194.94C190.036 108.89 186.06 112.866 186.06 117.77V136.01C186.06 140.914 190.036 144.89 194.94 144.89H284.68C289.584 144.89 293.56 140.914 293.56 136.01V117.77C293.56 112.866 289.584 108.89 284.68 108.89Z" fill="#92E3A9" stroke="#263238" stroke-linecap="round" stroke-linejoin="round"/>
<path d="M199.49 127.17L195.63 123.62L201.91 116.74C202.54 116.05 203.66 116.05 204.41 116.74L205.55 117.79C206.3 118.48 206.4 119.6 205.77 120.29L199.49 127.17Z" stroke="#263238" stroke-linecap="round" stroke-linejoin="round"/>
<path d="M196.93 128.8L193.86 129.45L194.23 126.32" stroke="#263238" stroke-linecap="round" stroke-linejoin="round"/>
<path d="M270.56 115.55H219.87C218.33 115.55 217.08 116.8 217.08 118.34C217.08 119.88 218.33 121.13 219.87 121.13H270.56C272.1 121.13 273.35 119.88 273.35 118.34C273.35 116.8 272.1 115.55 270.56 115.55Z" fill="#858585" stroke="#263238" stroke-linecap="round" stroke-linejoin="round"/>
<path d="M261.8 124.53H219.87C218.33 124.53 217.08 125.78 217.08 127.32C217.08 128.86 218.33 130.11 219.87 130.11H261.8C263.34 130.11 264.59 128.86 264.59 127.32C264.59 125.78 263.34 124.53 261.8 124.53Z" fill="#999999" stroke="#263238" stroke-linecap="round" stroke-linejoin="round"/>
<path d="M312.41 131.96C312.41 131.96 299.7 135.34 298.17 135.8C296.64 136.26 294.91 138.86 292.93 141.28C290.95 143.7 288.6 145.21 286.97 145.59C285.34 145.97 280.72 147.59 280.66 146.21C280.6 144.83 285.32 144.4 285.32 144.4L289.23 142.46C287.24 143.72 280.17 144.8 280.17 144.8C280.17 144.8 278.59 145.09 277.22 144.21C275.85 143.33 276.68 142.29 276.68 142.29C276.17 141.21 278.47 140.58 278.47 140.58L282.72 137.74C282.72 137.74 286.09 132.83 285.47 131.95C284.85 131.07 278.56 134.03 277.79 132.57C277.01 131.12 282.72 129.07 285.97 128.3C289.22 127.53 294.46 128.3 294.46 128.3L309.02 122.82L312.41 131.94V131.96Z" fill="white" stroke="#263238" stroke-linecap="round" stroke-linejoin="round"/>
<path d="M278.12 142.48C278.12 142.48 279.5 142.48 279.93 142.33C281.17 141.93 283.44 140.55 284.39 139.66C285.37 138.75 286.39 136.99 287.14 136.87" stroke="#263238" stroke-linecap="round" stroke-linejoin="round"/>
<path d="M278.81 143.71C279.43 143.71 280.22 143.49 280.66 143.33C281.97 142.88 284.67 142.1 285.85 141.37C286.89 140.73 288.14 139.37 288.81 139.49" stroke="#263238" stroke-linecap="round" stroke-linejoin="round"/>
<path d="M328.1 80.6801C328.04 77.1601 328.19 67.7301 337.67 68.3801C347.15 69.0301 346.17 78.9801 345.84 85.8801C345.51 92.7801 348.46 121.68 342.06 123.75C335.66 125.82 307.93 134.8 307.93 134.8L303.68 122.56L329.35 111.82C329.35 111.82 328.23 88.4701 328.1 80.6801Z" fill="#92E3A9"/>
<path d="M338.94 117.75C339.38 118.33 339.77 119 340.1 119.77" stroke="#263238" stroke-linecap="round" stroke-linejoin="round"/>
<path d="M340.1 111.05C340.1 111.05 333.21 108.96 332.19 111.62C331.42 113.61 334.81 113.83 337.64 116.35" stroke="#263238" stroke-linecap="round" stroke-linejoin="round"/>
<path d="M328.16 83.4402C328.13 82.3902 328.11 81.4502 328.09 80.6702" stroke="#263238" stroke-linecap="round" stroke-linejoin="round"/>
<path d="M337.67 68.3701C347.16 69.0201 346.17 78.9701 345.84 85.8701C345.51 92.7701 348.46 121.67 342.06 123.74C335.66 125.81 307.93 134.79 307.93 134.79L303.68 122.55L329.35 111.81C329.35 111.81 328.61 96.3601 328.26 86.4101" stroke="#263238" stroke-linecap="round" stroke-linejoin="round"/>
<path d="M301.66 122.15L307.28 119.77L312.41 134.79L306.53 136.24L301.66 122.15Z" fill="#92E3A9"/>
<mask id="mask14_88_1662" style="mask-type:luminance" maskUnits="userSpaceOnUse" x="301" y="119" width="12" height="18">
<path d="M301.66 122.15L307.28 119.77L312.41 134.79L306.53 136.24L301.66 122.15Z" fill="white"/>
</mask>
<g mask="url(#mask14_88_1662)">
<path opacity="0.5" d="M301.66 122.15L307.28 119.77L312.41 134.79L306.53 136.24L301.66 122.15Z" fill="white"/>
</g>
<path d="M301.66 122.15L307.28 119.77L312.41 134.79L306.53 136.24L301.66 122.15Z" stroke="#263238" stroke-linecap="round" stroke-linejoin="round"/>
<path d="M237.23 144.24C236.96 143.19 236.4 140.16 238.03 140.16C239.61 140.16 239.96 141.96 239.96 141.96C239.96 141.96 239.68 139.85 241.28 140.16C242.88 140.47 243.13 142.83 243.13 142.83C243.13 142.83 242.86 140.92 244.6 141.12C246.34 141.32 245.3 145.69 247.38 145.66C248.26 145.65 247.24 142.54 248.94 142.55C250.64 142.55 249.97 145.91 253.13 145.91C254.16 145.91 250.26 147.25 247.68 146.7C247.68 146.7 246.47 147.79 243.39 146.08C243.39 146.08 241.77 147 239.99 145.58C239.99 145.58 237.88 146.72 237.24 144.24H237.23Z" fill="white" stroke="#263238" stroke-linecap="round" stroke-linejoin="round"/>
<path d="M239.93 143.21C239.93 143.21 239.87 143.37 240.03 144.27" stroke="#263238" stroke-linecap="round" stroke-linejoin="round"/>
<path d="M243.23 144.03C243.23 144.03 243.16 143.97 243.34 144.8" stroke="#263238" stroke-linecap="round" stroke-linejoin="round"/>
</g>
<defs>
<clipPath id="clip0_88_1662">
<rect width="431.93" height="320.02" fill="white"/>
</clipPath>
</defs>
</svg>
