<svg width="126" height="92" viewBox="0 0 126 92" fill="none" xmlns="http://www.w3.org/2000/svg">
<path fill-rule="evenodd" clip-rule="evenodd" d="M99.2155 63.1715C99.5124 62.9134 99.8839 62.7571 100.276 62.7254L100.285 62.7247L115.973 61.6386C116.21 61.6223 116.448 61.672 116.659 61.7823C116.868 61.8914 117.043 62.0555 117.165 62.2568C117.166 62.2589 117.168 62.261 117.169 62.2631L117.17 62.2654C117.292 62.4693 117.355 62.7028 117.352 62.9402C117.349 63.1783 117.281 63.411 117.154 63.6127L108.779 76.9387C108.566 77.2691 108.252 77.5226 107.885 77.6621C107.517 77.8017 107.114 77.82 106.735 77.7144C106.357 77.6087 106.022 77.3847 105.779 77.075C105.537 76.7653 105.4 76.3862 105.388 75.993C105.388 75.9833 105.388 75.9736 105.388 75.9638L105.455 69.2714L99.5317 66.175C99.5229 66.1704 99.5143 66.1656 99.5057 66.1607C99.1647 65.9646 98.8955 65.6646 98.7372 65.3045C98.579 64.9444 98.54 64.5432 98.6261 64.1594C98.7121 63.7757 98.9187 63.4295 99.2155 63.1715ZM114.662 62.9037L100.392 64.1956C100.315 64.2025 100.242 64.2336 100.183 64.2845C100.124 64.3361 100.082 64.4054 100.065 64.4821C100.048 64.5589 100.056 64.6391 100.087 64.7111C100.118 64.7798 100.168 64.8376 100.232 64.8768L106.321 67.894L114.662 62.9037ZM107.046 69.1784L115.42 64.169L107.539 76.1414C107.496 76.2062 107.434 76.2558 107.361 76.2833C107.288 76.3113 107.207 76.3149 107.132 76.2938C107.056 76.2727 106.989 76.2279 106.94 76.1659C106.894 76.1068 106.867 76.035 106.863 75.9602L107.046 69.1784Z" fill="#679666"/>
<path d="M57.0596 24.8333C49.1113 32.836 35.0671 52.2952 42.4763 66.1107C51.7378 83.3799 96.1811 54.8843 79.0003 46.9183C61.8195 38.9522 45.1145 84.1388 69.5528 83.0247C79.7083 81.8121 89.8588 79.1271 99.7762 72.8355" stroke="#293042" stroke-width="1.54081" stroke-dasharray="4.11 4.11"/>
<rect y="0.922852" width="118.83" height="39.9514" rx="19.9757" fill="#D4E5D2"/>
<g opacity="0.4">
<rect x="16.9487" y="14.9143" width="76.0133" height="3.08162" rx="1.54081" fill="#679666"/>
</g>
<g opacity="0.4">
<rect x="26.1938" y="24.1592" width="75.4997" height="3.08162" rx="1.54081" fill="#679666"/>
</g>
<path d="M27.6588 49.5815L19.4637 38.3132L35.854 38.3132L27.6588 49.5815Z" fill="#D4E5D2"/>
</svg>
